<svg width="16" height="16" viewBox="0 0 16 16" fill="none" xmlns="http://www.w3.org/2000/svg">
<g clip-path="url(#clip0_919_1262)">
<path fill-rule="evenodd" clip-rule="evenodd" d="M15.4383 0.634846C15.8331 1.0701 15.8003 1.74301 15.3651 2.13784C13.2594 4.04796 11.7848 5.66768 10.5579 7.58262C9.32681 9.50413 8.31627 11.7681 7.19117 15C7.0698 15.3487 6.77637 15.6095 6.41589 15.6891C6.05542 15.7689 5.67941 15.656 5.4224 15.391L0.585871 10.4033C0.17678 9.9814 0.187143 9.30776 0.609019 8.89867C1.03089 8.48958 1.70453 8.49995 2.11361 8.92182L5.76381 12.686C6.70612 10.1741 7.63838 8.19469 8.76603 6.43461C10.129 4.30723 11.7483 2.54556 13.9353 0.56166C14.3705 0.166829 15.0434 0.199596 15.4383 0.634846Z" fill="#09931F"/>
</g>
<defs>
<clipPath id="clip0_919_1262">
<rect width="16" height="16" fill="white"/>
</clipPath>
</defs>
</svg>
