<svg width="168" height="168" viewBox="0 0 168 168" fill="none" xmlns="http://www.w3.org/2000/svg">
<path d="M65.0883 87.2004C66.7363 88.0177 92.059 87.2919 94.8579 86.9257C95.6626 86.814 95.4207 85.6766 94.6487 85.7085C90.8359 85.7808 66.1349 85.7615 65.0622 86.4091C64.9863 86.4452 64.9225 86.5027 64.8788 86.5745C64.8351 86.6463 64.8132 86.7293 64.816 86.8133C64.8188 86.8973 64.846 86.9787 64.8944 87.0475C64.9427 87.1162 65.0101 87.1694 65.0883 87.2004Z" fill="#020812"/>
<path d="M107.389 87.36C110.874 87.2516 110.6 82.1797 107.251 82.357C103.766 82.5434 104.419 87.449 107.389 87.36ZM107.305 83.4355C107.496 83.4194 107.687 83.4421 107.869 83.5022C108.05 83.5623 108.218 83.6586 108.361 83.7852C108.505 83.9119 108.621 84.0662 108.703 84.239C108.785 84.4117 108.831 84.5993 108.838 84.7904C108.846 84.9815 108.815 85.1721 108.746 85.3508C108.678 85.5294 108.574 85.6924 108.441 85.8299C108.309 85.9673 108.149 86.0764 107.973 86.1506C107.797 86.2247 107.607 86.2624 107.416 86.2613C107.044 86.2704 106.684 86.133 106.413 85.8787C106.142 85.6244 105.981 85.2736 105.967 84.9022C105.952 84.5307 106.084 84.1684 106.334 83.8935C106.585 83.6186 106.933 83.4532 107.304 83.433L107.305 83.4355Z" fill="#020812"/>
<path d="M102.497 60.2683C100.849 60.2751 100.267 61.4443 102.497 61.4259C104.25 61.4259 106.336 61.5241 108.069 61.4259C109.056 61.3671 108.723 60.0466 108.723 59.2746C108.723 53.2266 109.075 53.8827 106.257 53.8919C105.309 53.8919 99.9205 53.7289 99.4165 54.154C98.9125 54.579 99.0562 55.498 99.0629 56.175C99.0629 56.511 98.9655 58.0323 99.5274 57.96C100.089 57.8878 99.9205 55.2527 99.9474 54.7554C101.346 55.1149 105.924 54.9713 107.685 54.9579C107.729 56.5345 107.685 58.8429 107.685 60.2885C106.028 60.2818 104.152 60.2625 102.497 60.2683Z" fill="#020812"/>
<path d="M88.3772 90.132C80.593 90.5655 72.2425 89.7792 65.4872 90.552C65.0555 90.5982 65.0748 91.697 65.4872 91.6902C73.2631 91.5004 80.8693 92.1346 88.5662 91.5071C89.4818 91.4315 89.2601 90.0808 88.3772 90.132Z" fill="#020812"/>
<path d="M79.3321 61.3671C79.5203 61.5653 79.8756 61.3015 79.7706 61.0596C76.813 54.3287 71.3437 50.3916 76.939 47.4432C79.7446 45.9657 84.205 43.9513 85.5842 43.4675C88.4554 42.4595 88.9854 44.3369 90.0648 46.1353C95.9893 56.0633 101.573 66.7825 107.789 76.3829C108.041 76.7685 108.829 76.2586 108.629 75.8789C104.23 67.62 97.2325 56.2397 90.9275 45.612C89.8489 43.7943 89.0509 41.034 84.7862 42.756C81.9429 43.9064 79.16 45.2008 76.4484 46.6343C72.9364 48.5965 73.0884 50.8528 74.6886 53.9658C75.6504 55.7886 77.9394 59.9013 79.3321 61.3671Z" fill="#020812"/>
<path d="M64.4473 76.2258C66.5333 77.4767 68.7505 78.4944 71.059 79.2607C71.7133 79.4892 71.983 78.6063 71.321 78.3577C69.1449 77.5647 67.0474 76.5709 65.0555 75.3891C61.6022 73.4269 59.2805 72.8448 61.7854 68.1954C62.835 66.2336 63.912 64.2866 65.016 62.3549C67.4949 57.96 69.9015 59.9609 73.6294 61.7005C85.1659 67.0177 96.2061 72.6205 107.422 78.5215C108.075 78.8684 108.69 77.9066 108.037 77.5404C97.167 71.4647 85.9177 65.9979 74.5971 60.9353C70.6734 59.1897 67.1479 56.8092 64.265 61.6812C57.8987 72.4332 58.1121 72.4223 64.4473 76.2258Z" fill="#020812"/>
<path d="M99.2788 50.5629C101.28 50.9367 105.714 50.7133 107.937 50.694C108.75 50.694 108.788 49.3861 108.592 45.5406C108.52 44.1605 108.776 43.3037 106.729 43.4019C105.133 43.4742 103.543 43.5456 101.947 43.559C98.5463 43.559 98.9394 43.2978 98.952 47.1231C98.952 47.6792 98.5799 50.4327 99.2788 50.5629ZM99.9919 44.4091C101.84 44.8543 106.428 44.2327 107.447 44.4091C107.447 45.717 107.52 48.3789 107.494 49.733C105.328 49.733 101.961 49.5171 99.9264 49.733C99.9331 48.0127 100.044 46.1034 99.9919 44.4091Z" fill="#020812"/>
<path d="M107.866 71.3731C107.95 72.172 108.88 72.2627 108.945 71.4328C109.024 69.9252 109.024 68.4144 108.945 66.9068C108.899 65.8862 109.208 64.9967 107.853 64.8732C106.911 64.7816 103.975 64.507 103.176 64.9967C102.968 65.121 102.942 65.5334 103.176 65.5662C104.714 65.7686 106.264 65.8081 107.807 65.9257C107.952 67.1941 107.772 70.4651 107.866 71.3731Z" fill="#020812"/>
<path d="M63.5972 97.8474C77.7563 97.9003 92.0203 97.9784 106.172 97.4803C111.313 97.3039 112.922 97.2056 113.098 91.7129C113.196 88.8785 113.151 86.0409 112.961 83.2112C112.725 80.1956 110.574 79.6395 108.108 79.679C93.2165 79.9016 78.3577 79.6269 63.4729 80.1637C59.7517 80.2998 57.7508 80.8626 57.6979 85.2709C57.6979 95.4828 56.9705 97.818 63.5972 97.8474ZM58.7706 85.218C58.8932 82.1184 59.6996 81.4313 63.499 81.3792C76.5794 81.1969 94.5185 81.1574 108.019 80.7257C109.713 80.6727 111.538 80.8567 111.702 82.9819C111.929 85.9219 111.844 88.9131 111.826 91.8699C111.792 96.5135 109.817 96.3035 106.005 96.3698C91.996 96.6117 77.5169 97.1737 63.6258 96.7898C59.7475 96.6789 58.7866 96.5378 58.6883 92.3042C58.6664 91.3197 58.6715 87.7229 58.7706 85.218Z" fill="#020812"/>
<path d="M95.9498 51.1056C96.028 49.9935 95.9498 43.0618 95.9112 42.6368C95.7516 38.5888 102.37 40.0328 107.807 39.995C111.665 39.9555 111.352 42.1269 111.419 45.187C111.648 56.0768 111.831 67.8023 112.354 79.1364C112.368 79.2365 112.418 79.3282 112.495 79.3944C112.571 79.4607 112.669 79.4972 112.77 79.4972C112.871 79.4972 112.969 79.4607 113.045 79.3944C113.122 79.3282 113.172 79.2365 113.186 79.1364C113.303 68.345 112.934 55.7626 112.479 45.2072C112.321 41.538 112.61 39.0794 108.011 38.9021C105.678 38.8108 103.344 38.7694 101.007 38.7778C97.9138 38.7778 95.1804 38.9676 95.0561 42.63C95.0561 43.2315 95.0561 50.1119 95.1804 51.093C95.2308 51.4265 95.928 51.4198 95.9498 51.1056Z" fill="#020812"/>
<path d="M43.5649 35.2859C46.1832 37.2447 48.7645 38.8139 51.256 41.0667C52.2178 41.937 54.5261 40.9828 52.0212 38.7845C53.4984 37.1606 54.8918 35.4625 56.196 33.6966C62.2322 25.1949 54.3841 21.7157 49.4659 27.7326C47.9094 29.6293 46.4579 31.6109 44.9602 33.5538C42.4402 31.8788 41.2978 33.5891 43.5649 35.2859Z" fill="#73757A"/>
<path d="M43.5523 49.644C45.6582 47.1459 47.3323 44.2159 49.1803 41.5279C49.2549 41.4149 49.2827 41.2774 49.258 41.1443C49.2333 41.0111 49.1579 40.8928 49.0478 40.814C48.9376 40.7353 48.8012 40.7023 48.6673 40.722C48.5333 40.7418 48.4122 40.8126 48.3294 40.9198C47.1005 42.6913 42.4763 49.4214 40.8937 50.605C40.0302 51.2593 37.585 50.7948 36.5056 52.7243L34.9095 51.6642C36.7668 50.2194 35.8336 48.1362 36.4795 46.8317C37.1255 45.5272 43.8304 38.4796 44.3923 37.3397C44.4347 37.2444 44.4451 37.1379 44.422 37.0362C44.3989 36.9345 44.3436 36.843 44.2643 36.7753C44.1849 36.7075 44.0858 36.6673 43.9818 36.6605C43.8777 36.6536 43.7742 36.6806 43.6867 36.7374C42.9601 37.2607 37.8596 43.2054 37.1465 44.0454C34.2754 47.4726 35.642 47.8842 35.1842 49.7154C34.7004 51.6777 32.1434 51.2064 35.4522 53.3711C37.0944 54.4505 36.6954 53.2602 38.2318 52.3967C40.6157 51.0535 40.4594 53.3106 43.5523 49.644Z" fill="#020812"/>
<path d="M64.0676 133.699C62.5052 135.054 58.4497 137.826 62.3742 137.964C84.6098 138.872 110.116 138.46 132.724 138.618C133.569 138.618 133.503 137.31 132.66 137.31C110.966 137.166 83.9563 137.199 62.0273 136.819C66.1668 133.268 70.3139 129.899 74.4534 126.355C94.7276 126.545 121.98 126.355 142.94 126.702C140.802 129.054 137.532 132.889 135.4 135.249C134.14 136.65 135.74 136.623 136.66 135.621C138.942 133.131 142.323 128.997 144.814 126.717C145.312 126.26 145.351 125.409 144.554 125.373C122.317 124.877 99.4274 125.178 77.191 125.137C76.855 125.137 73.862 124.895 72.9406 125.72C69.993 128.352 67.0706 131.098 64.0676 133.699Z" fill="#73757A"/>
<path d="M137.852 64.8858C137.209 62.7114 135.886 60.8001 134.077 59.4317C124.753 59.5426 117.074 59.6602 115.55 59.6602C115.55 61.2108 115.486 63.0681 115.609 65.0563C116.715 65.0563 126.983 64.9707 137.852 64.8858Z" fill="#73757A"/>
<path d="M103.713 140.442H86.9316C84.8912 140.442 80.9416 139.789 79.522 141.282C78.6526 142.19 75.1464 146.004 74.7155 146.742C74.5189 147.069 74.3795 147.397 74.7155 147.498C77.8932 148.348 95.9171 148.041 100.698 147.975C102.51 147.975 102.359 147.723 103.674 146.275C105.132 144.679 107.362 141.847 107.402 141.422C107.538 140.167 104.406 140.442 103.713 140.442ZM76.1468 146.504L81.013 141.481C84.8056 141.914 100.554 141.606 105.748 141.724C105.028 142.672 102.516 145.876 102.143 146.662C102.144 146.368 83.58 146.898 76.1468 146.504Z" fill="#73757A"/>
<path d="M155.7 59.22C153.881 59.22 146.23 59.2922 138.564 59.388C140.307 60.7456 141.54 62.653 142.062 64.8001H158.508C157.953 66.7615 152.498 108.798 151.753 115.613C150.268 115.429 84.2403 115.285 80.2771 115.365C80.2771 114.625 80.8525 109.341 81.1012 108.105C79.349 106.509 77.9922 104.527 77.1381 102.316C77.0667 103.271 75.5353 113.232 74.9339 118.49L48.1203 140.582C45.3273 142.877 42.0571 145.323 42.0723 149.326C42.0723 155.31 45.6431 157.311 50.542 157.37C55.4409 157.429 103.829 158.462 116.981 158.351C127.845 158.267 132.389 155.97 135.862 152.126C137.647 150.163 151.722 133.394 154.174 129.366C156.626 125.338 156.587 123.604 156.587 120.942C156.839 119.634 162.67 75.1623 163.663 67.1899C164.656 59.2174 159.97 59.225 155.7 59.22ZM132.28 147.368C127.939 152.235 120.816 152.476 116.584 152.408C112.352 152.34 55.7617 151.917 48.862 151.885C45.2979 151.885 43.7548 151.368 43.4927 149.858C42.8392 145.973 47.5415 142.892 50.2564 140.655L74.9893 120.288C79.9453 120.386 142.24 120.884 154.255 121.001C153.097 122.366 136.618 142.504 132.28 147.368Z" fill="#73757A"/>
<path d="M85.8656 71.8049C85.0617 71.3731 80.078 68.8649 78.8096 68.2408C78.3459 69.1102 74.9969 74.4736 74.2845 75.8403C75.1539 76.2779 79.5161 78.2208 81.6614 79.2406C81.9353 78.9004 84.4469 74.2249 85.8656 71.8049Z" fill="#0C2D6D"/>
<path d="M64.3365 70.8179C65.4478 71.4714 68.9791 73.3874 70.686 74.0872C71.059 73.5512 74.2443 67.9073 75.1464 66.3592C74.4341 65.9602 70.0325 64.2533 68.5482 63.4813C68.124 64.1861 64.8329 69.8561 64.3365 70.8179Z" fill="#0C2D6D"/>
<path d="M98.1414 78.1292C97.4879 77.8478 92.1892 74.7155 90.4235 73.9763C89.9926 74.7482 88.6251 77.2464 87.9455 78.5543C89.712 78.5215 95.4139 78.3123 98.1414 78.1292Z" fill="#0C2D6D"/>
<path d="M19.7795 107.219C15.8164 106.937 12.7621 102.353 12.1405 98.4875C10.7473 99.1056 9.49458 100.001 8.45865 101.119C7.42272 102.237 6.62531 103.554 6.115 104.991C5.60469 106.427 5.39218 107.952 5.49041 109.473C5.58865 110.994 5.99558 112.479 6.6864 113.838C7.40848 115.411 8.48083 116.799 9.82148 117.895C11.1621 118.991 12.7356 119.765 14.4215 120.16C16.1075 120.554 17.8613 120.558 19.5489 120.171C21.2365 119.783 22.8131 119.015 24.1584 117.925C19.9492 114.282 19.5376 111.234 19.7795 107.219Z" fill="#0C2D6D"/>
<path d="M24.9984 83.3675C18.6934 83.4599 12.2909 88.9787 14.2204 96.3623C14.3119 96.7025 15.0049 96.7159 14.9663 96.3035C14.5211 91.2416 17.477 84.7409 25.0463 84.7115C31.1422 84.7115 35.2556 89.8783 34.2863 95.7902C34.2608 95.9702 34.3056 96.153 34.4114 96.3008C34.5173 96.4485 34.676 96.5498 34.8545 96.5835C35.0331 96.6173 35.2178 96.5809 35.3703 96.482C35.5227 96.383 35.6312 96.2291 35.6731 96.0523C37.254 89.4306 31.6361 83.27 24.9984 83.3675Z" fill="#73757A"/>
<path d="M26.9405 106.983C25.7451 107.132 24.5317 107.011 23.3889 106.63C21.4275 105.976 21.4275 107.05 21.6627 109.41C21.8979 111.77 22.748 114.583 24.9329 116.322C26.103 117.251 28.8565 112.85 28.9094 108.566C28.9481 106.807 28.9539 106.736 26.9405 106.983ZM25.5864 114.996C23.3243 113.177 22.7749 110.705 22.5851 107.763C24.2245 108.349 25.9936 108.474 27.699 108.122C27.9216 111.182 27.1236 112.594 25.5864 114.996Z" fill="#73757A"/>
<path d="M126.466 86.814C127.088 86.746 127.368 85.9841 126.466 85.8203C124.583 85.4801 123.986 83.937 123.464 82.0462C123.071 80.6072 122.398 81.5422 122.294 82.152C121.79 85.0416 121.142 85.4213 119.456 85.853C118.095 86.2067 118.364 86.861 119.318 86.9904C120.157 87.1036 120.935 87.4939 121.527 88.0994C122.12 88.7049 122.493 89.4909 122.588 90.3328C122.756 91.8103 123.464 92.2942 123.666 90.3328C123.85 88.6326 124.669 87.0097 126.466 86.814ZM123.022 88.4881C122.501 87.5257 121.655 86.7795 120.635 86.3822C122.179 85.9841 122.597 85.3684 122.891 83.8908C123.285 84.8977 123.988 85.754 124.899 86.3369C124.071 86.849 123.416 87.5986 123.02 88.4881H123.022Z" fill="#73757A"/>
<path d="M114.178 33.0691C117.27 33.5933 117.408 34.9331 117.905 37.7252C118.055 38.5426 118.906 38.8172 118.906 37.9865C118.906 34.802 119.932 33.847 122.96 33.3665C123.095 33.3317 123.216 33.2544 123.304 33.1459C123.393 33.0375 123.444 32.9036 123.451 32.764C123.457 32.6243 123.419 32.4861 123.342 32.3698C123.264 32.2534 123.151 32.165 123.02 32.1174C120.285 31.6529 119.272 29.92 118.893 27.232C118.641 25.4923 117.86 25.6687 117.513 27.5722C117.015 30.3845 116.407 31.1842 114.053 31.8234C112.732 32.1796 112.728 32.8238 114.178 33.0691ZM118.174 30.093C118.777 31.1527 119.662 32.0249 120.731 32.613C119.737 32.9289 118.894 33.5992 118.363 34.4963C118.142 34.0039 117.816 33.5657 117.409 33.2121C117.001 32.8585 116.521 32.5982 116.002 32.4492C116.532 32.2678 117.007 31.9574 117.386 31.546C117.765 31.1346 118.036 30.6352 118.174 30.093Z" fill="#0C2D6D"/>
<path d="M12.936 48.0976C10.059 47.5692 9.64655 44.5696 9.44999 42.3427C9.36599 41.3415 8.50163 41.1583 8.42351 42.3427C8.27315 44.6704 8.19419 47.7767 5.15339 48.1429C3.75395 48.3109 3.98243 48.9737 5.31047 49.203C8.77631 49.7977 8.58059 51.4987 8.90063 53.5844C9.01823 54.3304 9.59447 54.5135 9.75743 53.545C10.1111 51.4718 10.1304 49.5365 13.0276 49.2097C14.0826 49.1047 14.096 48.3118 12.936 48.0976ZM9.19715 50.4C8.66296 49.5128 7.83815 48.8379 6.86279 48.4899C7.39355 48.2625 7.8619 47.911 8.22839 47.4648C8.59488 47.0187 8.84877 46.491 8.96867 45.9262C9.34477 47.0135 10.0686 47.9467 11.0284 48.5814C10.2329 48.9674 9.58866 49.6073 9.19715 50.4Z" fill="#73757A"/>
<path d="M141.586 76.697C141.593 77.537 142.39 77.2136 142.515 76.5005C142.714 75.1036 142.714 73.6856 142.515 72.2887C142.286 70.7767 141.07 70.5692 141.279 72.1644C141.466 73.6683 141.569 75.1816 141.586 76.697Z" fill="#0C2D6D"/>
<path d="M53.0678 9.86497C51.7599 9.40045 49.1442 9.74065 47.8355 10.201C46.5267 10.6613 45.2197 11.9994 47.4432 11.713C49.6667 11.4265 50.9552 11.4778 52.8847 11.3207C53.0471 11.2933 53.1963 11.2143 53.3102 11.0955C53.4242 10.9766 53.4968 10.8243 53.5174 10.6609C53.5379 10.4975 53.5053 10.3319 53.4243 10.1885C53.3433 10.0452 53.2183 9.93171 53.0678 9.86497Z" fill="#73757A"/>
<path d="M66.4482 55.272C66.4875 55.3518 66.5512 55.4171 66.63 55.4584C66.7088 55.4998 66.7987 55.515 66.8867 55.5019C66.9748 55.4888 67.0564 55.4481 67.1198 55.3856C67.1832 55.3232 67.2251 55.2422 67.2395 55.1544C67.5209 53.1921 67.5671 51.8843 68.5482 50.3605C68.8548 49.896 69.5873 49.229 68.8943 48.7191C67.6057 47.738 65.4284 52.8066 66.4482 55.272Z" fill="#73757A"/>
<path d="M62.5901 11.4996C62.4995 11.5405 62.4226 11.6067 62.3687 11.6902C62.3148 11.7737 62.2861 11.871 62.2861 11.9704C62.2861 12.0698 62.3148 12.1671 62.3687 12.2506C62.4226 12.3341 62.4995 12.4003 62.5901 12.4412C63.898 12.9125 65.2058 12.4412 67.8216 13.9003C68.8229 14.4497 69.8821 14.201 69.2673 13.2006C68.6524 12.2001 64.1517 10.815 62.5901 11.4996Z" fill="#73757A"/>
<path d="M32.5651 16.994C33.5983 15.8491 34.0822 14.9402 35.9789 14.222C36.3905 14.0717 38.1369 13.382 36.96 12.7571C35.7832 12.1321 32.1006 14.3858 31.7277 16.5765C31.7256 16.6746 31.7514 16.7712 31.8021 16.8551C31.8528 16.9391 31.9264 17.0069 32.0141 17.0506C32.1019 17.0944 32.2003 17.1123 32.2978 17.1022C32.3954 17.0922 32.4881 17.0547 32.5651 16.994Z" fill="#73757A"/>
<path d="M22.0357 44.389C21.9517 43.3297 21.604 38.2091 20.8455 38.2158C19.4065 38.2158 20.538 43.2315 21.4209 44.5595C21.588 44.8081 22.0626 44.7426 22.0357 44.389Z" fill="#73757A"/>
<path d="M21.9374 29.1379C22.8723 29.342 22.6565 27.4772 24.0567 25.4495C25.6527 23.1344 24.0567 22.9118 22.9051 24.6254C22.4087 25.3386 20.6228 28.8515 21.9374 29.1379Z" fill="#73757A"/>
<path d="M116.728 47.2475C116.119 49.9439 120.07 50.962 121.096 48.5554C125.583 49.9422 126.328 52.2245 127.152 51.4332C127.26 51.3129 127.32 51.1567 127.32 50.9947C127.32 50.8328 127.26 50.6766 127.152 50.5563C125.472 49.0425 123.432 47.9843 121.227 47.4827C121.16 46.95 120.908 46.4578 120.514 46.0922C120.121 45.7267 119.612 45.511 119.076 45.483C118.539 45.455 118.01 45.6163 117.581 45.9389C117.152 46.2615 116.85 46.7247 116.727 47.2475H116.728Z" fill="#0C2D6D"/>
<path d="M75.637 40.1318C75.0089 41.0688 74.2687 41.9255 73.4328 42.6829C69.9275 45.7237 73.0212 44.7031 74.7407 43.1928C78.3838 39.942 76.1082 39.5699 75.637 40.1318Z" fill="#73757A"/>
<path d="M29.1186 57.8289C31.4084 55.8029 29.1186 53.2509 26.9144 54.206C26.2214 53.1795 25.5016 52.1589 24.8279 51.1123C24.7868 51.0258 24.7287 50.9485 24.6572 50.885C24.5856 50.8214 24.502 50.7729 24.4113 50.7423C24.3206 50.7117 24.2247 50.6997 24.1292 50.7069C24.0338 50.7141 23.9407 50.7404 23.8557 50.7843C23.7706 50.8282 23.6952 50.8887 23.634 50.9623C23.5728 51.0359 23.5271 51.1211 23.4994 51.2127C23.4718 51.3044 23.4629 51.4006 23.4732 51.4958C23.4835 51.5909 23.5128 51.6831 23.5595 51.7667C24.1985 52.9728 25.0164 54.0753 25.9854 55.0368C24.3768 57.5215 27.1438 59.5761 29.1186 57.8289Z" fill="#73757A"/>
<path d="M134.844 56.364C134.568 56.0112 131.463 52.9309 130.919 53.4408C130.376 53.9507 133.739 57.0839 133.922 57.2082C134.484 57.6005 135.294 56.9402 134.844 56.364Z" fill="#0C2D6D"/>
<path d="M126.375 106.525C125.575 107.015 124.759 107.467 123.939 107.926C123.494 108.178 123.409 109.089 125.593 108.324C126.349 108.063 130.616 105.99 129.518 104.865C128.807 104.126 128.131 105.45 126.375 106.525Z" fill="#0C2D6D"/>
<path d="M114.408 111.888C110.993 112.589 113.657 113.373 116.201 112.745C116.802 112.594 119.908 111.718 119.366 110.652C118.823 109.586 117.642 111.224 114.408 111.888Z" fill="#0C2D6D"/>
<path d="M140.566 65.4805C140.422 64.0591 139.895 62.7033 139.043 61.5569C138.343 60.6018 136.865 60.6018 138.388 62.7144C139.114 63.7869 139.67 64.965 140.036 66.2071C140.062 66.4684 140.7 66.8019 140.566 65.4805Z" fill="#0C2D6D"/>
<path d="M141.423 84.0412C140.514 86.3142 141.128 87.3508 139.768 89.796C139.546 90.1891 140.104 90.51 140.422 90.216C141.357 89.292 142.901 85.596 142.476 84.2579C142.325 83.858 141.598 83.6027 141.423 84.0412Z" fill="#0C2D6D"/>
<path d="M137.329 96.4866C136.388 95.9759 136.296 97.4484 135.132 98.8386C134.577 99.4956 133.994 100.128 133.385 100.735C133.323 100.795 133.284 100.875 133.277 100.962C133.269 101.048 133.294 101.134 133.346 101.203C133.397 101.272 133.473 101.32 133.557 101.338C133.642 101.355 133.73 101.341 133.805 101.298C135.805 100.477 138.493 97.12 137.329 96.4866Z" fill="#0C2D6D"/>
<path d="M106.14 112.922C104.832 112.86 104.832 113.439 101.856 112.922C98.1599 112.268 100.816 114.066 103.164 114.35C107.676 114.936 107.023 112.963 106.14 112.922Z" fill="#0C2D6D"/>
<path d="M74.146 20.5842C74.8012 21.5183 75.3824 22.5003 75.9511 23.4814C76.8146 24.985 77.9134 24.2265 77.259 22.8858C75.0616 18.5758 72.0384 17.5787 74.146 20.5842Z" fill="#73757A"/>
<path d="M79.1624 34.6257C79.1982 32.7385 79.0028 30.8541 78.5803 29.0145C78.4686 28.6541 77.9654 28.8246 77.9259 29.1321C77.6907 30.6886 78.1091 33.9974 77.684 35.149C77.3111 36.136 79.1414 36.456 79.1624 34.6257Z" fill="#73757A"/>
<path d="M79.6001 101.588C79.5403 101.52 79.4577 101.477 79.3681 101.467C79.2785 101.456 79.1883 101.479 79.1146 101.532C79.0409 101.584 78.989 101.661 78.9689 101.749C78.9487 101.837 78.9617 101.929 79.0054 102.008C80.0129 103.969 81.3539 105.739 82.9685 107.24C83.5766 107.842 84.5704 106.919 83.9496 106.35C82.4191 104.839 81.002 103.22 79.6001 101.588Z" fill="#0C2D6D"/>
<path d="M91.2089 111.155C90.4058 110.834 89.6524 110.384 88.8409 110.084C88.0295 109.783 88.037 111.188 90.7376 112.385C94.0666 113.864 94.3816 112.326 93.891 111.915C93.5567 111.666 92.0531 111.495 91.2089 111.155Z" fill="#0C2D6D"/>
<path d="M91.6667 55.9129C90.2085 56.5673 85.1265 59.1049 83.4523 59.9449C83.9824 61.1545 86.6502 65.1764 86.8963 65.7325C89.686 64.6329 92.3772 63.2983 94.941 61.7433C93.7659 59.4443 92.0069 56.6588 91.6667 55.9129Z" fill="#73757A"/>
<path d="M89.5541 52.5714C88.4427 50.6091 86.7678 48.1043 86.3696 47.019C85.0617 47.5482 79.3329 50.5571 78.3703 51.0795C78.8088 52.0413 80.9869 55.3896 81.438 56.4429C82.5896 56.0372 88.536 53.1266 89.5541 52.5714Z" fill="#73757A"/>
<path d="M92.6218 67.4688C93.9884 68.0249 98.3245 70.0854 99.7828 70.7389C99.3443 70.0854 97.3955 66.5272 96.6504 65.389C96.0028 65.814 93.7986 66.9127 92.6218 67.4688Z" fill="#73757A"/>
<path d="M29.2555 65.651C29.1638 66.3794 29.2199 67.1189 29.4205 67.8251C29.6211 68.5313 29.9621 69.1898 30.423 69.7613C30.8839 70.3327 31.4554 70.8053 32.1031 71.1508C32.7509 71.4963 33.4617 71.7076 34.193 71.7721C36.4888 71.8964 40.0789 70.4642 39.4775 66.0173C38.876 61.5703 35.7563 59.8567 34.592 56.2464C33.2707 59.582 29.8469 61.1722 29.2555 65.651Z" fill="#0C2D6D"/>
<path d="M28.6281 102.543C29.9225 104.761 29.1245 106.166 30.3417 105.937C33.0355 105.441 35.3506 101.045 35.5278 99.0242C35.5278 98.6588 35.5278 97.8734 35.07 97.7684C30.9817 96.8268 26.0971 98.9595 26.2668 99.8945C26.4046 100.417 27.7032 100.959 28.6281 102.543ZM34.5139 98.6185C33.9906 101.686 33.2061 103.013 30.4819 104.812C30.2299 103.118 29.0758 100.673 27.6259 99.8348C30.4643 98.7302 31.2102 98.2069 34.4997 98.6446L34.5139 98.6185Z" fill="#73757A"/>
<path d="M37.212 98.4875C36.9247 103.296 33.8243 107.061 30.5281 107.546C30.8713 109.432 30.6802 111.377 29.9765 113.16C29.2728 114.943 28.0844 116.494 26.5457 117.637C30.424 120.854 38.3695 121.515 42.3326 115.485C46.2958 109.455 44.1 99.96 37.212 98.4875Z" fill="#0C2D6D"/>
<path d="M14.3119 98.2397C13.8919 98.8277 15.2401 104.989 20.7539 105.76C20.937 102.968 22.2449 100.686 24.4096 99.7248C21.7409 96.516 14.726 97.6534 14.3119 98.2397Z" fill="#73757A"/>
</svg>
