<svg width="100" height="100" viewBox="0 0 100 100" fill="none" xmlns="http://www.w3.org/2000/svg">
<mask id="mask0_454_119" style="mask-type:luminance" maskUnits="userSpaceOnUse" x="0" y="0" width="100" height="100">
<path d="M100 0H0V100H100V0Z" fill="white"/>
</mask>
<g mask="url(#mask0_454_119)">
<path d="M44.9659 3.06432C47.0784 -1.02144 52.9215 -1.02144 55.034 3.06432L68.4865 29.0822C69.0255 30.1248 69.875 30.9743 70.918 31.5134L96.9355 44.9659C101.021 47.0784 101.021 52.9215 96.9355 55.034L70.918 68.4865C69.875 69.0255 69.0255 69.875 68.4865 70.918L55.034 96.9355C52.9215 101.021 47.0784 101.021 44.9659 96.9355L31.5134 70.918C30.9743 69.875 30.1248 69.0255 29.0822 68.4865L3.06432 55.034C-1.02144 52.9215 -1.02144 47.0784 3.06432 44.9659L29.0822 31.5134C30.1248 30.9743 30.9743 30.1248 31.5134 29.0822L44.9659 3.06432Z" fill="white" fill-opacity="0.8"/>
</g>
</svg>
