<svg width="100" height="100" viewBox="0 0 100 100" fill="none" xmlns="http://www.w3.org/2000/svg">
<path fill-rule="evenodd" clip-rule="evenodd" d="M50 0C36.1929 0 25 11.1929 25 25C11.1929 25 1.09279e-06 36.1929 0 50C0 63.807 11.1929 75 25 75C25 88.807 36.1929 100 50 100C63.807 100 75 88.807 75 75C88.807 75 100 63.807 100 50C100 36.1929 88.807 25 75 25C75 11.1929 63.807 0 50 0ZM70.153 29.847C70.153 18.7167 61.13 9.6939 50 9.6939C38.8698 9.6939 29.847 18.7167 29.847 29.847C18.7167 29.847 9.6939 38.8698 9.6939 50C9.6939 61.13 18.7167 70.153 29.847 70.153C29.847 81.2835 38.8698 90.306 50 90.306C61.13 90.306 70.153 81.2835 70.153 70.153C81.2835 70.153 90.306 61.13 90.306 50C90.306 38.8698 81.2835 29.847 70.153 29.847ZM34.6939 34.6939C34.6939 26.2406 41.5466 19.3878 50 19.3878C58.4535 19.3878 65.306 26.2406 65.306 34.6939C73.7595 34.6939 80.612 41.5466 80.612 50C80.612 58.4535 73.7595 65.306 65.306 65.306C65.306 73.7595 58.4535 80.612 50 80.612C41.5466 80.612 34.6939 73.7595 34.6939 65.306C26.2406 65.306 19.3878 58.4535 19.3878 50C19.3878 41.5466 26.2406 34.6939 34.6939 34.6939Z" fill="white" fill-opacity="0.8"/>
</svg>
