<svg width="875" height="492" viewBox="0 0 875 492" fill="none" xmlns="http://www.w3.org/2000/svg">
<mask id="mask0_70_1445" style="mask-type:alpha" maskUnits="userSpaceOnUse" x="0" y="0" width="875" height="492">
<path d="M0 4C0 1.79086 1.79086 0 4 0H871C873.209 0 875 1.79086 875 4V492H0V4Z" fill="#020812"/>
</mask>
<g mask="url(#mask0_70_1445)">
<path d="M0 4C0 1.79086 1.79086 0 4 0H871C873.209 0 875 1.79086 875 4V492H0V4Z" fill="#020812"/>
<g opacity="0.3" filter="url(#filter0_f_70_1445)">
<path d="M269.453 0.533464C270.868 0.204225 272.351 0.668603 273.326 1.74646L484.793 235.577C487.329 238.381 484.919 242.813 481.187 242.209L32.9782 169.654C30.4956 169.252 28.9953 166.686 29.8629 164.325L72.5476 48.1871C73.0125 46.9221 74.0832 45.9763 75.3958 45.671L269.453 0.533464Z" fill="#0C2D6D"/>
</g>
<g opacity="0.6" filter="url(#filter1_f_70_1445)">
<path d="M619.377 434.404C619.857 433.894 620.463 433.52 621.133 433.317L731.04 400.105C731.793 399.877 732.463 399.432 732.965 398.826L845.124 263.269C846.863 261.167 850.149 261.384 851.596 263.696L900.275 341.448C901.459 343.338 900.868 345.831 898.962 346.989L463.143 611.848C459.162 614.268 454.96 609.081 458.153 605.688L619.377 434.404Z" fill="#0C2D6D"/>
</g>
<g opacity="0.3" filter="url(#filter2_f_70_1445)">
<path d="M798.325 131.725C798.325 189.863 947.045 294.975 873.872 294.975C800.7 294.975 555.896 197.181 555.896 139.043C555.896 80.9057 677.794 -16.8879 750.966 -16.8879C824.139 -16.8879 798.325 73.5876 798.325 131.725Z" fill="#0C2D6D"/>
</g>
<g opacity="0.3" filter="url(#filter3_f_70_1445)">
<path d="M366.463 377.357C366.463 419.747 301.482 522.398 206.608 522.398C111.734 522.398 -45.1031 411.846 -45.1031 369.456C-45.1031 327.067 99.805 300.604 194.679 300.604C289.552 300.604 366.463 334.968 366.463 377.357Z" fill="#0C2D6D"/>
</g>
</g>
<defs>
<filter id="filter0_f_70_1445" x="-86.3848" y="-115.571" width="688.225" height="473.835" filterUnits="userSpaceOnUse" color-interpolation-filters="sRGB">
<feFlood flood-opacity="0" result="BackgroundImageFix"/>
<feBlend mode="normal" in="SourceGraphic" in2="BackgroundImageFix" result="shape"/>
<feGaussianBlur stdDeviation="58" result="effect1_foregroundBlur_70_1445"/>
</filter>
<filter id="filter1_f_70_1445" x="341.026" y="145.819" width="675.859" height="582.651" filterUnits="userSpaceOnUse" color-interpolation-filters="sRGB">
<feFlood flood-opacity="0" result="BackgroundImageFix"/>
<feBlend mode="normal" in="SourceGraphic" in2="BackgroundImageFix" result="shape"/>
<feGaussianBlur stdDeviation="58" result="effect1_foregroundBlur_70_1445"/>
</filter>
<filter id="filter2_f_70_1445" x="439.896" y="-132.888" width="570.221" height="543.863" filterUnits="userSpaceOnUse" color-interpolation-filters="sRGB">
<feFlood flood-opacity="0" result="BackgroundImageFix"/>
<feBlend mode="normal" in="SourceGraphic" in2="BackgroundImageFix" result="shape"/>
<feGaussianBlur stdDeviation="58" result="effect1_foregroundBlur_70_1445"/>
</filter>
<filter id="filter3_f_70_1445" x="-161.103" y="184.604" width="643.566" height="453.794" filterUnits="userSpaceOnUse" color-interpolation-filters="sRGB">
<feFlood flood-opacity="0" result="BackgroundImageFix"/>
<feBlend mode="normal" in="SourceGraphic" in2="BackgroundImageFix" result="shape"/>
<feGaussianBlur stdDeviation="58" result="effect1_foregroundBlur_70_1445"/>
</filter>
</defs>
</svg>
