<svg width="517" height="96" viewBox="0 0 517 96" fill="none" xmlns="http://www.w3.org/2000/svg">
<path d="M72.2133 63.0356C72.2133 70.1611 77.9533 68.3797 77.9533 72.8331C77.9533 74.6145 76.6667 76.2969 73.5988 76.2969C70.9268 76.2969 68.4526 76 61.6241 76C54.7955 76 52.3214 76.2969 49.6493 76.2969C46.5814 76.2969 45.2949 74.6145 45.2949 72.8331C45.2949 68.3797 51.0348 70.1611 51.0348 63.0356V47.4981C51.0348 45.5188 50.3421 44.7271 47.8679 44.7271H30.2522C27.7781 44.7271 27.0853 45.5188 27.0853 47.4981V63.0356C27.0853 70.1611 32.8253 68.3797 32.8253 72.8331C32.8253 74.6145 31.5387 76.2969 28.4708 76.2969C25.7988 76.2969 23.3247 76 16.4961 76C9.6675 76 7.19338 76.2969 4.52133 76.2969C1.45342 76.2969 0.166876 74.6145 0.166876 72.8331C0.166876 68.3797 5.90684 70.1611 5.90684 63.0356V18.1056C5.90684 10.9801 0.166876 12.7614 0.166876 8.30803C0.166876 6.52667 1.94824 4.84426 5.01615 4.84426C7.68821 4.84426 9.6675 5.14116 16.4961 5.14116C23.3247 5.14116 25.7988 4.84426 28.4708 4.84426C31.5387 4.84426 32.8253 6.52667 32.8253 8.30803C32.8253 12.7614 27.0853 10.9801 27.0853 18.1056V32.6534C27.0853 34.6327 27.7781 35.4244 30.2522 35.4244H47.8679C50.3421 35.4244 51.0348 34.6327 51.0348 32.6534V18.1056C51.0348 10.9801 45.2949 12.7614 45.2949 8.30803C45.2949 6.52667 46.5814 4.84426 49.6493 4.84426C52.3214 4.84426 54.7955 5.14116 61.6241 5.14116C68.4526 5.14116 70.9268 4.84426 73.5988 4.84426C76.6667 4.84426 77.9533 6.52667 77.9533 8.30803C77.9533 12.7614 72.2133 10.9801 72.2133 18.1056V63.0356ZM89.4935 20.8766C83.9515 20.8766 80.7846 17.8087 80.7846 13.7511C80.7846 7.91217 87.1183 1.77635 95.3324 1.77635C100.38 1.77635 104.536 4.94323 104.536 9.39665C104.536 15.1366 97.6086 20.8766 89.4935 20.8766ZM82.5659 76.2969C79.597 76.2969 78.4094 74.7135 78.4094 73.0311C78.4094 68.7756 83.8525 70.458 83.8525 63.6294V45.2219C83.8525 38.7892 77.7167 41.1644 77.7167 36.3151C77.7167 33.742 80.7846 32.2575 89.0976 28.6948C96.7179 25.429 98.1034 25.1321 99.291 25.1321C102.26 25.1321 103.052 27.5072 103.052 30.7731V63.6294C103.052 70.458 108.594 68.7756 108.594 73.0311C108.594 74.6145 107.406 76.2969 104.437 76.2969C101.963 76.2969 99.4889 76 93.4521 76C87.4152 76 85.0401 76.2969 82.5659 76.2969ZM152.576 62.4418C161.285 63.0356 169.301 67.3901 169.301 77.0886C169.301 87.9747 157.425 95.3971 137.335 95.3971C116.652 95.3971 105.864 90.2509 105.864 83.2244C105.864 79.5627 108.536 76.7917 113.485 74.9114C110.318 73.13 108.141 70.26 108.141 66.1035C108.141 61.947 111.209 56.9987 116.058 53.9308C110.318 51.1598 107.25 47.0033 107.25 41.7582C107.25 32.3565 117.344 23.7466 137.038 23.7466C138.226 23.7466 139.414 23.7466 140.502 23.8455C141.294 13.8501 148.419 6.4277 153.368 6.4277C155.941 6.4277 158.811 7.81321 163.363 11.7718C165.045 13.2563 166.233 14.9387 166.233 16.5221C166.233 18.4025 165.144 19.9859 162.67 20.0849C155.248 20.2828 148.914 20.9755 147.628 24.8352C157.92 27.1114 163.264 32.7524 163.264 39.5809C163.264 48.7847 153.664 57.0977 133.674 57.0977C129.913 57.0977 126.548 56.8008 123.579 56.207C122.787 57.1967 122.293 58.0874 122.293 58.4832C122.293 60.0667 124.47 60.7594 129.319 61.0563C138.523 61.5511 144.857 61.947 152.576 62.4418ZM134.861 31.07C129.418 31.07 125.756 34.8306 125.756 39.8778C125.756 46.5085 130.705 49.8733 135.554 49.8733C140.997 49.8733 144.659 46.1126 144.659 41.0654C144.659 34.4348 139.71 31.07 134.861 31.07ZM137.335 88.1727C147.628 88.1727 151.289 86.1934 151.289 83.9172C151.289 82.1358 149.706 80.8493 145.846 80.3545C139.117 79.4638 130.408 78.5731 121.897 77.5834H121.798C120.511 78.9689 119.917 80.7503 119.917 81.9379C119.917 86.6882 127.538 88.1727 137.335 88.1727ZM224.875 62.3428C225.964 70.8538 231.011 68.6766 231.011 73.13C231.011 74.9114 229.427 76.1979 226.755 76.1979C224.281 76.1979 222.104 75.901 216.067 75.901C209.931 75.901 207.655 76.1979 205.181 76.1979C202.014 76.1979 200.728 74.6145 200.728 72.9321C200.728 69.1714 205.874 69.7652 205.874 65.9056C205.874 64.0253 205.676 63.1346 205.577 62.2439L203.796 49.4774C202.707 41.4613 200.035 38.7892 196.076 38.7892C192.909 38.7892 189.05 41.1644 189.05 50.8629V63.6294C189.05 70.458 194.592 68.7756 194.592 73.0311C194.592 74.6145 193.404 76.2969 190.435 76.2969C187.961 76.2969 185.487 76 179.45 76C173.413 76 171.038 76.2969 168.564 76.2969C165.595 76.2969 164.408 74.7135 164.408 73.0311C164.408 68.7756 169.851 70.458 169.851 63.6294V20.0849C169.851 13.6521 163.715 16.0273 163.715 11.178C163.715 8.60493 166.783 7.12045 175.096 3.55772C182.716 0.291878 184.102 -0.00501238 185.289 -0.00501238C188.258 -0.00501238 189.05 2.37014 189.05 5.63598V34.6327H189.149C192.118 29.3875 198.155 24.7362 205.973 24.7362C214.979 24.7362 220.916 31.3668 222.5 43.9354L224.875 62.3428ZM317.14 4.84426C320.109 4.84426 321.395 6.22977 321.395 7.91217C321.395 12.7614 315.358 11.0791 311.994 19.788L291.904 71.2497C290.122 75.7031 288.341 77.1876 279.731 77.1876C271.616 77.1876 269.637 75.8021 267.855 71.2497L247.765 19.8869C244.598 11.8708 238.859 12.7614 238.859 8.01114C238.859 6.22977 240.442 4.84426 242.718 4.84426C246.281 4.84426 250.042 5.14116 256.87 5.14116C263.996 5.14116 268.35 4.84426 272.012 4.84426C275.179 4.84426 277.158 6.13081 277.158 8.30803C277.158 13.4542 270.23 11.8708 270.23 17.0169C270.23 18.5014 271.121 20.5797 272.111 23.2517L285.57 58.2853L299.623 21.5693C300.514 19.2931 300.909 17.5118 300.909 16.72C300.909 11.5739 293.091 13.3552 293.091 8.30803C293.091 6.13081 294.675 4.84426 297.941 4.84426C301.503 4.84426 304.67 5.14116 307.639 5.14116C310.707 5.14116 313.775 4.84426 317.14 4.84426ZM327.995 20.8766C322.453 20.8766 319.286 17.8087 319.286 13.7511C319.286 7.91217 325.62 1.77635 333.834 1.77635C338.881 1.77635 343.038 4.94323 343.038 9.39665C343.038 15.1366 336.11 20.8766 327.995 20.8766ZM321.067 76.2969C318.098 76.2969 316.911 74.7135 316.911 73.0311C316.911 68.7756 322.354 70.458 322.354 63.6294V45.2219C322.354 38.7892 316.218 41.1644 316.218 36.3151C316.218 33.742 319.286 32.2575 327.599 28.6948C335.219 25.429 336.605 25.1321 337.792 25.1321C340.761 25.1321 341.553 27.5072 341.553 30.7731V63.6294C341.553 70.458 347.095 68.7756 347.095 73.0311C347.095 74.6145 345.908 76.2969 342.939 76.2969C340.464 76.2969 337.99 76 331.954 76C325.917 76 323.542 76.2969 321.067 76.2969ZM387.416 24.2414C399.984 24.2414 409.881 33.4451 409.881 50.1702C409.881 65.9056 397.609 77.7814 381.676 77.7814C369.008 77.7814 366.336 73.3279 362.872 73.3279C359.705 73.3279 355.747 76.8907 352.679 76.8907C350.106 76.8907 348.819 75.1093 348.819 72.2393V20.0849C348.819 13.6521 341.694 16.0273 341.694 11.178C341.694 8.60493 344.861 7.12045 353.372 3.55772C360.299 0.687739 362.971 -0.00501238 364.159 -0.00501238C367.425 -0.00501238 368.018 2.96393 368.018 5.63598V34.4348C371.977 28.7938 378.311 24.2414 387.416 24.2414ZM380.092 68.6766C385.337 68.6766 389.494 64.4211 389.494 55.3163C389.494 44.4302 383.952 37.2058 377.816 37.2058C372.076 37.2058 368.018 42.8468 368.018 50.1702V51.5557C368.018 60.3636 372.472 68.6766 380.092 68.6766ZM461.564 60.0667C463.445 60.0667 464.236 62.046 464.236 62.9366C464.236 63.8273 463.939 64.619 463.346 65.7077C460.377 70.7549 450.876 78.1772 436.427 78.1772C419.801 78.1772 408.42 67.0932 408.42 51.5557C408.42 34.3358 422.275 23.7466 437.813 23.7466C453.548 23.7466 462.356 34.5337 462.356 44.1333C462.356 47.5971 461.267 47.9929 459.189 48.6857L431.38 57.5925C434.547 62.4418 439.495 66.1035 445.928 66.1035C450.183 66.1035 453.647 64.718 457.606 62.046C459.783 60.5615 460.476 60.0667 461.564 60.0667ZM435.24 32.6534C430.687 32.6534 427.619 37.0078 427.619 44.6281C427.619 46.3105 427.817 47.9929 428.213 49.6753L440.782 45.3209C442.365 44.8261 443.355 43.9354 443.355 42.0551C443.355 37.7006 439.792 32.6534 435.24 32.6534ZM472.805 78.1772C470.331 78.1772 469.045 75.4062 467.956 72.9321L464.591 65.5097C463.305 62.7387 462.018 60.6604 462.018 58.4832C462.018 56.207 463.602 55.1184 465.086 55.1184C466.57 55.1184 467.659 55.9101 469.342 57.4936C474.884 62.8377 482.702 68.7756 491.51 68.7756C495.864 68.7756 498.338 66.7963 498.338 64.619C498.338 61.1553 492.103 60.5615 485.077 58.978C473.597 56.5039 462.909 51.8526 462.909 41.0654C462.909 31.2679 472.113 24.7362 483.493 24.7362C489.233 24.7362 493.786 26.3196 495.765 26.3196C497.942 26.3196 497.942 24.3403 500.515 24.3403C502.99 24.3403 504.276 26.3196 505.662 28.3979L509.719 34.5337C511.204 36.8099 512.49 38.9871 512.49 40.7685C512.49 42.5499 511.204 43.7375 509.818 43.7375C508.136 43.7375 507.047 42.5499 505.464 41.2633C499.625 36.612 492.4 32.8513 486.462 32.8513C483.395 32.8513 481.118 34.1379 481.118 36.2161C481.118 39.482 486.66 40.1747 493.588 41.8571C505.266 44.5292 516.449 48.1909 516.449 59.5718C516.449 71.1507 505.068 77.0886 491.609 77.0886C484.582 77.0886 480.722 75.5052 478.545 75.5052C475.675 75.5052 475.477 78.1772 472.805 78.1772Z" fill="#0C2D6D"/>
</svg>
