<svg width="168" height="168" viewBox="0 0 168 168" fill="none" xmlns="http://www.w3.org/2000/svg">
<path d="M158.956 133.526C111.493 110.057 112.438 110.195 111.277 110.499L98.8814 113.64C98.8462 113.978 98.8033 114.317 98.7538 114.659C100.87 114.124 102.081 113.815 102.078 113.81C110.107 111.77 111.413 111.1 112.404 111.613C153.14 132.727 157.311 134.037 157.311 134.037C148.666 137.786 100.141 158.544 93.4996 161.603C93.1468 161.765 92.0875 161.595 90.883 160.846C88.4478 159.331 51.7406 135.758 42.5225 129.996C41.7211 129.494 41.7858 129.037 42.4872 128.859C46.9409 127.73 52.0733 126.433 57.4199 125.084C57.1528 124.837 56.889 124.59 56.6286 124.345L42.2906 127.977C38.5493 128.926 38.8693 128.86 43.2558 131.673L91.5407 162.565C92.5151 163.19 92.9368 162.927 96.0859 161.584C164.117 132.56 160.361 134.221 158.956 133.526V133.526Z" fill="#0C2D6D"/>
<path d="M110.672 128.124C109.725 127.734 108.912 127.728 108.186 128.106C108.076 128.163 107.994 128.354 108.028 128.472C108.153 128.881 108.628 128.674 109.73 128.795C110.59 128.89 110.84 129.142 110.942 130.02C110.968 130.242 110.884 130.625 111.285 130.625C111.737 130.625 111.749 130.07 111.74 129.645C111.522 129.647 111.631 129.646 111.74 129.645C111.726 128.965 111.327 128.396 110.672 128.126V128.124Z" fill="#0C2D6D"/>
<path d="M108.546 127.396C110.262 126.846 111.037 127.684 111.166 127.031C111.215 126.775 111.017 126.665 110.753 126.548C110.473 126.425 110.22 126.413 109.748 126.402C108.972 126.385 108.252 126.593 107.582 126.998C107.157 127.256 107.364 127.735 107.68 127.735C107.922 127.735 108.254 127.488 108.546 127.395V127.396Z" fill="#0C2D6D"/>
<path d="M115.413 127.697C115.598 127.802 115.814 127.676 115.842 127.441C115.881 127.115 115.54 126.696 115.236 126.438C114.408 125.735 113.994 126.241 114.163 126.542C114.484 127.116 115 127.461 115.413 127.697Z" fill="#0C2D6D"/>
<path d="M117.422 127.888C117.942 127.888 118.387 127.504 118.385 126.79C118.385 126.682 118.258 126.625 118.176 126.695C117.697 127.107 117.214 127.175 116.658 126.911C116.553 126.86 116.439 126.971 116.49 127.079C116.661 127.438 116.937 127.888 117.422 127.888Z" fill="#0C2D6D"/>
<path d="M67.2 132.833C63.0622 133.983 59.1402 135.002 55.1435 137.815C54.4732 138.286 54.4169 138.139 55.4257 138.9C55.5702 139.009 55.7105 138.838 55.8986 138.686C57.8029 137.156 62.9656 135.158 68.2794 133.485C67.919 133.276 67.5587 133.058 67.2 132.833Z" fill="#0C2D6D"/>
<path d="M130.154 129.528C129.567 128.622 128.508 127.887 127.606 127.32C128.269 126.237 128.401 125.06 128.938 123.996C129.89 122.12 124.14 119.75 122.126 118.868C120.879 118.323 120.126 117.819 118.891 118.564C118.447 118.833 116.387 119.845 116.085 119.838C113.57 119.776 112.088 119.852 110.531 119.5C107.706 118.861 106.816 119.526 106.568 120.196C106.221 121.135 107.087 122.462 108.062 122.979C109.764 123.878 110.207 123.74 111.885 124.628C112.571 124.991 110.536 126.69 112.897 129.041C113.099 129.241 113.29 129.447 113.494 129.663C109.342 132.827 108.753 132.469 107.596 131.763C107.05 131.432 106.931 131.427 106.982 131.255C107.072 130.939 107.712 130.531 108.067 130.56C108.341 130.584 108.427 130.767 108.526 131.053C108.624 131.332 108.748 131.568 109.052 131.456C110.225 131.016 108.452 128.583 106.858 130.009C105.551 131.179 106.036 132.594 99.8474 134.116C97.9196 134.592 98.1263 134.608 98.2397 134.397C99.2947 132.436 98.5547 132.066 99.5039 132.128C102.433 132.317 104.299 131.3 105.38 128.919C107.229 124.836 110.95 126.124 111.248 125.353C111.271 125.293 111.258 125.225 111.213 125.178C110.546 124.463 108.665 125.02 107.994 125.372C106.804 125.998 104.604 121.839 97.172 120.634C97.0402 120.971 96.9016 121.304 96.7571 121.634C100.786 122.186 104.016 123.686 106.536 126.159C103.337 128.486 105.475 130.64 100.272 131.137C98.2565 131.335 98.8579 129.905 93.4349 127.215C93.2602 127.441 93.0812 127.662 92.8998 127.881C93.639 128.267 95.0687 128.965 97.5433 130.85C98.0566 131.241 98.1918 131.641 98.0238 132.28C97.7861 133.189 96.8226 135.148 96.2665 135.273C91.0308 136.445 88.6486 134.229 86.9022 133.096C86.5444 133.314 86.1823 133.521 85.8152 133.715C89.1215 136.875 96.2472 137.565 97.4425 135.632C97.8541 135.277 103.672 134.832 106.347 132.054C106.68 132.36 107.074 132.498 107.396 132.697C109.051 133.724 110.685 132.838 111.923 131.951C112.191 131.759 112.279 131.765 112.508 131.997C116.941 136.5 116.517 141.133 112.148 145.088C106.965 149.785 101.798 151.159 95.8852 149.407C92.0338 148.268 87.397 144.698 85.3255 142.516C84.9416 142.112 84.9391 141.627 85.3171 141.059C86.6393 139.076 87.1685 137.422 89.7624 138.339C96.9898 140.893 99.4048 143.882 101.712 145.163C102.175 145.42 102.678 144.908 102.273 144.444C101.756 143.847 100.571 143.229 100.102 142.673C102.379 141.28 104.646 139.836 107.177 139.284C109.057 138.874 108.534 136.129 99.7408 141.749C98.3976 142.607 98.5942 140.362 90.1337 137.406C87.4247 136.459 87.3314 138.065 86.2352 137.235C84.0185 135.558 81.4867 135.526 79.2683 137.143C77.469 135.656 77.2036 135.605 74.9776 137.171C74.0174 136.764 74.4862 135.474 71.0186 138.079C69.4453 139.261 68.4138 140.758 69.6545 142.294C70.4894 143.327 76.1435 148.714 77.4102 149.421C77.9075 149.698 78.388 149.667 78.8399 149.33C78.9566 149.239 81.0012 148.125 82.4947 146.33C83.1961 145.486 82.9492 145.027 82.7677 144.692C82.6182 144.414 82.5426 144.276 83.1449 143.886C83.2516 143.816 83.328 143.727 83.4305 143.616C83.9807 143.028 84.0092 142.731 83.5632 142.09C83.1718 141.526 82.9223 141.293 82.8072 141.158C83.0491 140.912 83.4532 140.678 83.1222 140.282C82.5997 139.659 81.6001 140.886 81.3044 140.861C81.0768 140.6 82.0772 139.827 82.3612 139.678C82.4981 139.606 82.8173 139.437 82.6232 139.065C82.2142 138.274 81.0692 139.352 80.4485 139.961C80.341 139.795 80.283 139.668 80.3124 139.52C80.3704 139.226 80.7668 138.843 81.5245 138.348C81.9706 138.056 81.7807 137.44 81.1322 137.564C80.4014 137.704 80.0016 138.336 79.6387 138.596C79.5144 137.25 83.6279 135.914 85.9219 138.257C83.6976 141.687 83.4103 141.731 84.1722 142.771C85.0147 143.919 87.1702 145.977 92.6512 149.265C91.5911 150.431 90.4252 150.869 85.0315 155.361C84.2562 156.006 83.7875 156.396 83.5237 156.526C83.4725 156.552 83.4372 156.602 83.4313 156.659C83.417 156.782 83.4599 156.783 84.0764 157.278C84.1327 157.324 84.2125 157.329 84.2764 157.287C85.6699 156.341 92.4798 151.165 93.4886 149.832C93.6188 149.661 93.6852 149.695 93.8834 149.787C97.5526 151.5 102.362 151.683 106.919 149.773C111.199 147.979 114.736 144.606 116.151 140.97C117.449 137.635 116.386 134.346 112.993 131.19C114.034 130.425 114.584 129.953 114.752 130.715C114.92 131.468 116.271 132.747 117.383 134.854C118.878 137.683 122.847 137.364 122.961 132.668C122.978 132.016 123.619 131.109 124.164 131.326C129.786 133.59 131.271 131.248 130.157 129.531L130.154 129.528ZM73.9637 139.63C74.1754 138.736 74.0771 138.035 74.0645 137.646C74.6718 138.12 76.3913 140.059 81.643 144.671C81.328 144.725 80.9516 144.682 78.5501 144.876C78.1981 144.902 77.9209 144.786 77.684 144.5C75.1674 141.469 73.652 140.942 73.9637 139.63ZM78.2662 148.562C77.7378 148.936 77.3581 148.392 70.7944 142.098C69.9863 141.322 69.8628 140.813 70.3223 140.152C70.9372 139.268 72.3937 138.156 73.2085 137.669C73.1136 138.447 73.1598 139.113 73.012 139.784C72.8776 140.392 73.0741 140.988 73.5974 141.555C77.1263 145.392 77.4388 146.126 79.0835 145.848C79.9142 145.706 80.7878 145.784 81.6472 145.688C81.7026 145.682 81.7412 145.682 81.7664 145.683C81.685 145.858 81.186 146.498 78.2662 148.562V148.562ZM80.1998 140.961C80.2393 140.976 80.2561 141.009 80.2931 141.114C80.4787 141.648 81.3212 142.11 81.8521 141.789C82.0831 141.649 82.131 141.693 82.2797 141.884C82.6426 142.347 82.9088 142.605 82.892 142.74C82.8727 142.894 82.5031 143.166 81.8882 143.612C79.8874 141.837 77.3724 139.631 75.6034 137.817C75.9688 137.504 76.3678 137.252 76.8172 137.049C77.2783 136.839 77.6773 137.069 78.0394 137.348C78.755 137.903 78.7063 138.111 78.6559 138.332C78.5274 138.891 78.7525 138.795 79.1322 139.7C79.333 140.18 79.5606 140.722 80.1998 140.961ZM120.497 119.109C122.968 120.241 125.588 121.194 127.786 122.847C128.431 123.33 128.339 123.345 127.456 125.05C124.56 123.395 121.36 121.864 117.422 120.251C119.841 119.134 119.83 118.802 120.497 119.109ZM118.096 121.408C120.804 122.561 123.684 123.836 126.406 125.344C127.128 125.745 127.232 126.256 126.862 126.919C126.119 126.722 126.638 126.444 121.608 124.961C117.478 123.745 117.21 122.881 113.734 120.675C115.246 120.551 116.645 120.789 118.096 121.408H118.096ZM116.042 124.033C115.86 123.885 115.885 123.638 116.151 123.647C116.598 123.663 117.456 124 117.921 124.24C118.289 124.431 118.269 124.631 117.861 124.626C117.254 124.618 116.455 124.37 116.042 124.033ZM117.159 125.535C116.91 125.515 116.21 125.344 116.012 125.13C115.907 125.016 115.795 124.811 116.082 124.784C116.35 124.758 117.158 125.039 117.298 125.229C117.444 125.426 117.309 125.547 117.159 125.535ZM114.71 122.415L113.516 123.194C113.35 122.506 113.877 121.991 114.71 122.415ZM112.659 124.018C112.634 124.038 112.619 124.041 112.49 123.968C110.86 123.037 109.832 122.949 108.406 122.152C107.416 121.599 106.831 120.163 108.063 120.111C110.014 120.032 111.759 120.43 113.365 121.459C111.545 122.955 112.848 123.864 112.658 124.017L112.659 124.018ZM113.144 124.958C113.688 124.169 114.281 123.716 115.014 123.205C114.762 123.898 114.541 125.105 115.898 125.966C117.049 126.696 118.447 126.475 119.223 125.436C119.587 124.947 119.335 125.202 122.259 126.045C122.921 126.236 123.222 126.524 123.161 126.909C123.136 127.069 123.081 127.224 122.993 127.385C121.601 126.057 120.477 125.845 119.366 126.687C118.3 127.494 118.196 128.587 119.037 130.215C114.572 131.06 111.478 127.374 113.145 124.958L113.144 124.958ZM120.141 128.223C119.839 128.103 120.01 127.67 120.156 127.707C120.828 127.87 121.637 128.087 121.89 128.276C122.136 128.46 121.941 128.732 121.562 128.675C121.291 128.635 120.831 128.501 120.141 128.223ZM120.962 129.609C120.695 129.602 120.306 129.52 120.037 129.404C119.856 129.325 119.913 129.05 120.109 129.053C120.369 129.058 120.831 129.177 121.068 129.274C121.302 129.37 121.165 129.615 120.962 129.609ZM121.916 133.185C121.866 135.513 120.096 136.068 118.92 134.995C118.679 134.775 116.798 132.066 116.13 131.076C119.446 131.568 119.044 130.854 121.047 130.971C123.038 131.084 123.052 129.031 123.788 127.929C124.04 127.551 124.141 127.102 124.211 126.711C124.994 126.906 124.992 126.96 124.955 127.79C124.816 130.985 121.985 130.014 121.915 133.185H121.916ZM129.411 131.12C128.765 131.571 127.029 131.563 124.704 130.511C125.474 129.64 125.832 128.596 125.793 127.333C129.296 128.99 129.67 130.195 129.7 130.531C129.722 130.773 129.625 130.97 129.411 131.12Z" fill="#0C2D6D"/>
<path d="M15.1435 102.444C15.0041 99.3922 15.4745 97.8113 13.6962 97.3426C12.9142 97.1368 12.1078 97.1687 11.3198 97.0192C10.7092 96.9032 10.0876 96.8226 9.46848 96.8016C8.99304 96.7856 8.85612 96.5874 8.862 96.1531C8.88132 94.6705 8.8032 93.1812 8.90988 91.7062C9.35172 85.5691 8.46804 82.9008 9.98088 77.7541C10.4975 75.996 11.5769 74.9073 13.3274 74.4259C14.8151 74.0169 16.3338 73.7624 17.8508 73.5087C19.4443 73.2416 32.4668 71.1945 32.8541 71.1786C33.7924 71.1399 34.356 70.7451 34.676 69.7623C35.2153 68.1067 35.8621 66.4687 36.955 65.0667C38.3754 63.2448 40.1461 61.9008 42.3662 61.2027C42.8014 61.0658 43.0979 60.9104 43.1525 60.4098C43.2281 59.7117 43.659 59.3043 44.3293 59.1271C44.5082 59.0801 44.8039 59.1379 44.7863 58.8288C44.7695 58.5256 44.5721 58.3829 44.2579 58.3409C43.7296 58.2703 43.2054 58.1502 42.6695 58.1653C41.5598 58.1972 40.7333 57.6773 40.1033 56.8238C39.291 55.7243 38.8315 54.4902 38.7929 53.1084C38.7694 52.2676 38.729 52.2122 37.8958 52.145C36.0368 51.9963 34.1166 51.4613 33.0649 49.9207C30.4618 46.1063 31.1346 42.7983 31.4471 37.4324C32.2577 23.5254 31.642 29.7103 32.5819 13.6386C32.6878 11.8326 33.395 10.25 34.5232 8.85731C35.2598 7.94754 36.314 7.50654 37.3724 7.11174C40.3066 6.01722 46.4285 5.46618 50.0144 5.48886C56.7672 5.5317 62.8354 5.1915 67.6712 6.74634C68.8943 7.13946 69.8569 7.90974 70.8935 8.58347C71.3042 8.85059 71.4806 9.32183 71.6461 9.76787C71.8948 10.4365 72.0938 11.1295 72.1392 11.8385C72.3106 14.5029 72.4508 17.1733 71.5361 19.7555C70.7171 22.0663 69.4327 23.3851 66.7876 23.6791C66.0274 23.7639 66.0223 23.8017 65.987 24.5435C65.8627 27.1769 65.7972 29.8161 65.5872 32.4428C65.3411 35.513 65.231 38.5907 65.0404 41.6634C64.9202 43.5997 65.1479 45.0059 64.512 47.7569C64.1491 49.3268 63.1705 50.3004 61.5972 50.6406C60.7253 50.8296 59.8861 51.1043 59.0436 51.3899C58.7093 51.5033 58.5564 51.6662 58.4791 51.9787C58.0574 53.6814 57.6383 54.5533 57.0074 55.4823C54.8671 58.634 52.9183 57.3127 53.2258 58.5307C53.282 58.7541 53.3862 58.9331 53.6315 58.9272C55.1452 58.8919 56.1196 59.9117 57.188 60.7382C57.398 60.9012 57.5828 61.0893 57.8164 61.2263C59.6845 62.3166 61.2175 63.7832 62.5792 65.4447C63.0706 66.0445 63.1915 66.3377 63.7434 66.1974C66.1349 65.5901 68.5045 65.8916 70.8674 66.4023C70.9531 66.4208 71.0371 66.4552 71.1211 66.4812C72.7003 66.9617 72.9532 67.302 72.9162 68.9484C72.9036 69.5112 72.917 70.0815 72.823 70.6317C72.518 72.415 74.3518 72.09 75.301 75.5667C76.0704 78.3824 75.7924 81.1334 75.584 85.5616C75.5471 86.3453 75.7924 86.7989 76.456 87.2046C80.0974 89.434 83.48 92.0506 87.1004 94.3127C91.6322 97.1443 94.5151 99.1712 96.4085 104.168C99.5904 112.563 96.6655 122.879 89.8254 129.268C84.3503 134.383 76.6718 136.494 70.0426 133.002C63.5225 129.568 57.4367 123.258 54.5236 120.634C52.7621 119.047 51.0056 117.454 49.3147 115.791C49.0619 115.542 48.8015 115.439 48.4487 115.441C46.8728 115.453 42.945 115.788 42.6846 115.786C40.5502 115.776 38.4241 116.022 36.288 116.038C35.138 116.048 33.9847 116.204 32.8406 116.348C32.0023 116.453 31.8226 116.486 31.8368 118.036C31.8595 120.399 29.484 121.598 27.0816 121.689C22.5288 121.861 18.2666 120.779 14.2498 118.679C12.5815 117.807 11.3039 116.498 10.2438 114.97C9.74148 114.246 9.62892 113.38 9.49788 112.53C9.34164 111.517 11.1728 113.16 13.6063 112.491C14.1532 112.341 14.4505 112.006 14.6135 111.479C14.8714 110.642 14.863 109.766 14.8764 108.924C14.9108 106.76 15.2384 104.609 15.1393 102.441L15.1435 102.444ZM47.985 112.935C47.9279 112.733 47.7338 112.222 47.665 112.048C43.8581 102.432 48.5806 90.0631 59.7089 85.4885C61.7719 84.6401 63.9122 84.0857 66.1609 83.9591C67.1773 83.902 68.1878 83.8332 69.2135 83.8953C68.2811 83.2443 67.2748 82.821 66.1248 82.6345C66.1542 82.7773 66.1836 82.8595 66.1853 82.9419C66.1954 83.4114 66.0904 83.4829 65.6972 83.2527C64.7002 82.6689 64.6901 82.0179 62.7178 82.2565C62.979 82.7277 63.4393 82.9873 63.4704 83.4955C63.1688 83.64 62.979 83.461 62.7959 83.3383C61.4603 82.4446 61.409 82.1826 60.8387 82.2019C60.1734 82.2246 59.5224 82.3245 58.7866 82.5C59.2066 82.9662 59.5812 83.346 59.8609 83.7962C59.9416 83.9256 60.0214 84.0731 59.9138 84.2033C59.7526 84.3982 59.5862 84.2436 59.4552 84.1445C57.787 82.8906 57.703 82.6563 57.3367 82.7797C56.4799 83.0687 55.5769 83.2477 54.7781 83.7903C55.1779 84.5048 56.0372 84.8316 56.222 85.7455C55.7525 85.7086 55.6013 85.58 54.2388 84.4679C54.0196 84.289 53.8054 84.1865 53.5172 84.3469C52.7982 84.7484 52.0934 85.1659 51.4265 85.7472C52.0573 86.3344 52.2119 86.431 52.9376 87.2878C53.1107 87.4919 52.8822 87.8203 52.6235 87.6994C51.2173 87.0391 50.9746 85.9975 50.4521 86.4898C49.8809 87.0282 49.2878 87.5482 48.8309 88.1782C49.3424 88.8577 50.1942 89.1358 50.4865 89.9363C50.0245 90.2681 49.649 89.8506 48.9107 89.3424C48.1841 88.8418 48.1656 88.8476 47.6717 89.5566C47.234 90.1841 47.0366 90.7175 47.6591 91.3223C47.8078 91.4668 47.9699 91.602 48.0959 91.7666C48.3101 92.048 48.8914 92.3042 48.5982 92.6461C48.3118 92.9804 47.9161 92.4983 47.6146 92.3009C46.3319 91.4617 46.347 91.4558 45.7447 92.8746C45.6036 93.2072 45.6498 93.3954 45.9312 93.6256C46.4344 94.038 46.8947 94.5025 47.3693 94.9486C47.5919 95.1577 47.4701 95.5088 47.0786 95.3795C46.678 95.2476 46.3638 94.9687 46.0278 94.7268C45.7918 94.5571 45.6221 94.2841 45.2617 94.2572C44.9896 94.7083 44.872 95.2291 44.7098 95.7306C44.6023 96.0632 44.7325 96.2707 45.0223 96.4656C45.4633 96.7604 45.8682 97.1149 46.2798 97.4509C46.3697 97.524 46.452 97.6315 46.3966 97.7617C46.2277 98.1616 45.2668 97.5794 44.903 97.3417C44.5855 97.1334 44.3621 97.1057 44.2982 97.5736C44.2016 98.2775 44.0849 98.9772 43.9824 99.6794C43.8539 100.553 44.956 100.275 45.5305 101.282C44.9215 101.408 44.5141 100.997 44.0194 100.959C43.8606 101.39 43.9774 101.807 43.9295 102.209C43.8556 102.835 44.0504 103.283 44.6401 103.578C44.8963 103.706 45.1013 103.943 45.3113 104.148C45.4658 104.299 45.3751 104.63 45.0223 104.588C44.7367 104.555 44.5124 104.279 44.1546 104.383C44.058 106.49 44.8904 106.222 45.6061 106.903C45.7674 107.057 46.0824 107.196 45.9589 107.45C45.8136 107.748 45.5406 107.486 45.3323 107.449C45.1206 107.41 44.9375 107.226 44.6544 107.279C44.9837 109.564 45.6708 109.239 46.3067 109.854C46.431 109.974 46.604 110.111 46.51 110.302C46.3798 110.565 46.1664 110.432 45.9707 110.366C45.8682 110.331 45.7699 110.238 45.5977 110.355C45.801 110.897 46.1034 111.34 46.4201 111.696C47.2164 112.59 47.5591 112.858 47.8565 113.029C47.9766 113.098 48.0262 113.082 47.9858 112.939L47.985 112.935ZM64.6086 128.23C64.6086 128.23 59.6081 122.286 62.5036 111.383C64.6187 103.417 71.085 95.8944 79.7093 94.3933C81.2003 94.1338 82.7064 94.0338 84.2159 94.2925C84.3965 94.3236 84.609 94.4168 84.8299 94.1774C83.5178 93.1888 82.1906 92.2673 80.8088 91.4231C80.5661 91.2744 80.299 91.2752 80.0335 91.2752C78.7903 91.2727 77.553 91.2702 76.3106 91.429C62.7144 93.1678 53.1863 107.108 57.2813 121.556C57.3628 121.845 57.4316 122.128 57.6702 122.335C60.5749 124.852 61.346 126.013 64.6078 128.231L64.6086 128.23ZM28.3592 88.6066C23.2294 88.9081 20.8152 87.4457 19.3452 87.3583C17.8643 87.271 18.4909 88.6318 18.2414 91.2929C17.7383 96.6504 17.7618 107.617 17.6526 109.769C17.5081 112.609 17.5787 115.462 17.5627 118.309C17.5568 119.324 17.5795 119.299 18.5044 119.621C21.1672 120.548 23.914 120.881 26.7212 120.864C28.9464 120.851 31.001 120.093 31.117 117.849C31.2858 114.581 31.0758 111.95 31.2194 108.864C31.3244 106.61 31.3018 104.359 31.2598 102.107C31.0834 92.5714 30.3702 91.5079 31.8553 88.7611C31.9586 88.5696 32.4593 87.5549 32.2753 87.4381C32.1913 87.3844 30.739 88.4663 28.3584 88.6057L28.3592 88.6066ZM47.7456 114.579C47.7641 114.3 47.57 114.232 47.4365 114.132C46.7519 113.613 46.0748 113.083 45.3734 112.585C42.4939 110.542 41.2474 106.325 40.556 102.862C39.9151 99.6509 40.1268 96.4177 40.6602 93.2266C41.1869 90.0791 41.7488 86.9308 43.0324 83.9566C46.1874 76.6444 46.5058 79.151 48.841 75.8456C49.712 74.6133 50.1648 73.1954 50.526 71.7573C50.9317 70.142 50.8729 68.5955 50.0413 67.0306C48.9426 64.9617 47.4474 63.3673 45.3877 62.3039C44.5141 61.8528 43.5254 61.458 42.5662 61.8394C37.658 63.7941 36.7408 66.8718 35.3632 70.1092C35.275 70.3158 35.1112 70.5133 35.2204 70.8023C36.4997 70.7678 37.5287 71.4087 38.5207 72.1252C38.8828 72.3864 39.1877 72.7124 39.3851 73.1265C39.7102 73.8086 39.5808 74.0908 38.8408 74.2252C36.9768 74.5637 35.1179 74.9215 33.2464 75.2063C31.9486 75.4037 31.1564 76.4622 31.7058 77.8877C32.1132 78.9444 32.7902 79.8591 33.2262 80.8982C33.4891 81.5257 33.9394 80.8411 36.3586 80.7285C37.921 80.6555 39.1532 81.3569 39.3229 83.0973C39.4397 84.2923 39.2398 85.4608 38.8626 86.5948C38.813 86.7426 38.7769 86.966 38.4367 86.8636C38.4367 84.1268 38.4947 83.6769 38.2628 83.0107C37.9705 82.1699 37.5774 81.8735 36.7021 81.8264C35.8646 81.7819 35.0515 81.9641 34.2275 82.0422C33.8638 82.0767 33.7949 82.2363 33.8839 82.5757C34.1846 83.7231 34.1158 84.8912 33.7193 85.9799C33.3463 87.0055 33.0254 88.0614 32.5424 89.0375C31.1388 91.875 31.7814 93.2114 31.9595 103.461C31.9922 105.354 31.9922 107.25 31.8914 109.147C31.789 111.099 31.8612 113.06 31.862 115.018C31.862 115.985 32.0015 115.641 33.1649 115.517C38.2645 114.972 42.1882 115.17 47.7439 114.578L47.7456 114.579ZM44.2588 57.4815C46.7107 57.8881 51.3761 57.7015 53.9322 56.9497C56.0742 56.3197 57.0578 54.4768 57.6677 52.339C60.9958 40.6773 65.3831 29.9353 60.9151 28.9651C59.6081 28.6812 58.3019 28.4553 56.9621 28.4553C48.9787 28.4553 47.9632 28.2294 45.1063 29.0072C43.4028 29.4709 42.6947 31.2357 42.5292 32.993C42.0748 37.8087 44.0614 42.0465 45.1298 52.4012C45.3071 54.1157 45.4062 55.8603 44.2579 57.3413C44.2436 57.3597 44.2579 57.4001 44.2579 57.4824L44.2588 57.4815ZM58.8689 50.7321C59.8559 50.166 60.7858 50.0853 61.6619 49.8182C62.879 49.4469 63.6376 48.6463 63.8551 47.3872C64.6884 42.5673 63.5846 45.8693 65.1017 26.7417C65.1638 25.9597 65.1294 25.9538 64.3398 25.9689C62.4742 26.0042 60.611 26.1462 58.7437 26.1445C51.5491 26.1369 42.7115 26.5141 37.8773 26.1588C36.7097 26.0731 36.8777 26.0933 36.8483 27.1088C36.624 34.7999 36.1746 36.6487 36.3476 40.0709C36.451 42.1163 36.4022 44.1591 36.4518 46.2028C36.493 47.9063 36.3938 48.47 36.7844 50.2659C36.9155 50.8691 37.2725 51.2622 37.9117 51.3605C40.4468 51.7494 42.9551 51.7779 43.391 51.7183C44.1655 51.6125 44.1916 51.6032 44.1294 50.8481C44.0983 50.4659 44.0101 50.0879 43.9664 49.7057C43.097 42.0566 41.1449 36.9594 41.7749 32.599C42.1042 30.3234 43.4549 28.5065 45.9035 27.9496C48.0816 27.454 54.7974 27.5313 57.9751 27.6354C61.3637 27.7463 63.457 28.4293 63.5242 31.8187C63.5569 33.4676 63.1856 35.0519 62.8152 36.6386C60.4304 46.8421 60.8807 42.8865 58.8689 50.7321ZM76.9096 133.525C86.9677 133.805 98.4438 122.139 96.2917 108.037C94.7444 97.8978 84.9778 92.253 75.2405 97.0855C71.2236 99.0797 68.098 102.046 65.877 105.927C58.1885 119.366 65.2445 133.815 76.9096 133.525ZM69.2992 82.3783C68.7355 79.9591 69.3294 82.0279 67.473 76.1076C66.8926 74.2571 65.347 75.9573 60.8664 76.4857C57.8382 76.8427 54.7949 77.0804 51.7406 77.0905C48.6822 77.1006 46.9232 78.4714 45.6271 80.5134C44.3176 82.5773 43.3381 84.8224 42.7686 87.1878C41.9017 90.7864 41.3171 94.4378 41.2574 98.1632C41.1936 102.127 42.0428 105.864 43.8001 109.405C43.9606 109.728 44.1126 110.058 44.4469 110.326C44.4318 109.459 42.1999 105.311 43.0492 98.7412C44.8459 84.8291 57.7248 77.7365 69.2992 82.3783ZM65.3957 7.03278C60.501 6.27594 58.0793 6.40446 55.771 6.39522C51.2988 6.37674 46.8208 6.20958 42.3763 6.9219C40.0798 7.28982 36.0494 7.67034 34.8004 9.63263C33.2875 12.0098 33.1892 13.1732 32.8852 23.3691C32.8717 23.8059 32.5836 24.2973 32.8793 24.6653C33.2044 25.0693 33.7722 24.8526 34.2283 24.9416C36.3502 25.3532 38.6677 25.6128 42.0017 25.6086C42.0865 25.6086 64.0567 25.2776 64.7506 25.2415C64.8984 25.2339 65.0286 25.1978 65.1 25.0273C65.3856 24.3402 65.037 23.7631 64.0962 23.874C61.8551 24.1394 59.598 24.0344 57.3502 24.1352C53.5013 24.3083 49.6465 24.2142 45.796 24.0344C44.0412 23.9521 42.7837 23.1373 41.8681 21.6732C41.2507 20.6853 39.8639 16.7936 40.0478 13.7999C40.1688 11.8284 40.168 10.229 41.8295 9.23279C46.7233 6.29778 61.7039 6.83202 62.9009 6.97566C63.7308 7.07562 64.5532 7.0983 65.3957 7.03446V7.03278ZM66.7666 74.3671C66.8539 74.1756 66.785 74.0345 66.7338 73.9026C64.7539 68.8021 61.8778 65.0709 58.9294 62.7416C58.4875 62.3922 58.086 61.9697 57.4652 62.3997C57.3796 62.4594 57.4484 62.4299 48.5755 62.4198C48.1496 62.4198 47.7254 62.2056 47.287 62.3635C47.3542 62.6122 47.2206 62.4543 47.7548 62.8937C49.3483 64.2032 50.5025 65.8285 51.2333 67.7513C51.8221 69.3011 51.5533 70.8459 51.1417 72.3773C50.7562 73.8103 50.2169 75.1811 49.3324 76.4344C49.775 76.573 50.1052 76.3756 50.4529 76.363C53.1762 76.2639 55.8919 76.0833 58.6102 75.8733C63.3612 75.5062 65.3369 74.331 66.7666 74.3671ZM51.3685 116.381C51.3887 116.213 51.4256 116.118 51.403 116.045C47.3021 102.535 59.2679 86.5872 73.1447 86.8358C73.3345 86.8392 73.5504 86.9232 73.7226 86.7485C73.1724 86.0597 72.0846 85.3616 71.3336 85.2037C69.069 84.7283 66.7842 84.7468 64.5296 85.1449C51.1476 87.5104 43.57 101.543 49.5919 114.407C49.996 115.27 50.6755 115.758 51.3685 116.381ZM31.2295 75.5935C20.3826 77.3155 18.7454 78.1564 17.0394 76.8871C16.2154 78.1681 15.1074 79.1225 14.1607 80.2153C13.2997 81.2099 12.2455 81.4164 11.03 81.0653C10.8469 81.0124 10.6554 80.8713 10.4471 81.1333C10.6772 81.5575 11.0662 81.8298 11.4265 82.1187C14.359 84.4679 17.6753 86.0614 21.2738 87.1004C24.229 87.9539 28.8532 88.5478 31.5378 87.0618C32.6684 86.436 33.3698 85.559 33.3379 84.1445C33.311 82.9402 32.9162 81.8911 32.3946 80.8512C31.2875 78.6411 30.928 78.4101 28.476 78.6873C28.4466 78.6907 28.4172 78.6915 28.3886 78.6965C25.2395 79.2257 22.1962 80.0221 19.378 81.5601C19.2209 81.6458 19.0655 81.7483 18.8756 81.5568C18.9546 81.1385 19.3032 80.9469 19.6342 80.773C23.1454 78.9241 26.8439 77.8338 30.9145 78.006C30.7591 77.2383 30.697 76.4797 31.2287 75.5935H31.2295ZM58.6849 7.62162C54.7478 7.63422 48.032 8.16258 46.683 8.35242C45.087 8.57675 43.5599 8.99759 42.1613 9.83675C41.4086 10.2887 41.0063 10.9623 40.9609 11.7998C40.8517 13.8015 40.2234 16.5441 42.4763 21.1961C43.7548 23.8353 46.4696 23.2171 50.1068 23.417C52.9452 23.5733 55.7911 23.475 58.6328 23.3187C62.1449 23.1255 64.1962 23.2305 66.8774 22.8987C67.4713 22.8248 68.0014 22.5846 68.5264 22.2813C71.7133 20.4375 71.5134 15.2253 71.2967 11.5495C71.2673 11.0539 71.0892 10.5675 70.975 10.0778C70.7969 9.31007 70.2929 8.84303 69.5621 8.62463C68.6557 8.3541 67.7342 8.11638 66.7934 8.01558C64.1432 7.73334 61.4872 7.61406 58.6858 7.62246L58.6849 7.62162ZM74.7919 86.0311C74.9431 85.7674 74.8835 86.0118 74.9036 80.5151C74.9146 77.3937 74.5651 74.8501 72.4542 72.4897C72.2207 72.2285 72.025 72.1621 71.7016 72.2445C70.5466 72.5393 69.3638 72.5814 68.1778 72.5881C67.8376 72.5898 67.4982 72.4158 67.1378 72.5494C67.158 72.6703 67.1597 72.7594 67.1891 72.8383C70.7843 82.3866 69.5873 82.6589 70.7582 83.309C72.3332 84.1823 74.1468 85.8472 74.7919 86.0311ZM15.3527 74.8207C17.0923 75.8094 17.414 76.8409 19.2167 76.7343C22.1894 76.5587 20.6136 76.5428 33.6462 74.3639C38.467 73.5575 38.4602 73.6868 38.5501 73.4079C38.6131 73.2122 38.4418 73.0795 38.3048 72.9728C37.6958 72.4999 37.0398 72.0942 36.3544 71.7481C35.6261 71.3802 33.5429 71.9832 31.5512 72.2545C30.4416 72.4057 17.3939 74.2403 15.3527 74.8207ZM59.1066 93.786C58.6841 93.8288 56.8033 96.1178 56.5354 96.4505C56.2775 96.7705 56.3968 96.9872 56.6891 97.1762C57.8584 97.9314 59.0302 98.6824 60.1927 99.4501C60.8647 99.8936 60.727 99.0696 62.8614 97.078C63.1663 96.7932 63.2176 96.605 62.832 96.3287C61.9828 95.7188 59.4224 93.7541 59.1066 93.786ZM13.3022 80.0658C17.1452 76.0842 16.9252 76.7175 14.6294 75.093C13.9986 74.6461 11.7163 75.644 11.1208 77.0829C10.8377 77.7667 10.6075 78.4697 10.4429 79.1954C10.2875 79.8809 10.3732 80.0833 11.0166 80.3538C12.201 80.8528 12.7781 80.6093 13.3031 80.0649L13.3022 80.0658ZM45.701 59.6126C46.2218 60.1595 46.5898 60.5795 46.6956 61.0986C46.8115 61.6689 47.1139 61.7689 47.628 61.7622C50.059 61.7311 56.3128 61.7 57.2015 61.6782C56.3371 60.8105 55.5551 60.1703 54.6008 59.7503C54.29 59.6134 53.9591 59.5967 53.6399 59.6403C51.4231 59.9486 47.6742 59.7075 45.7027 59.6126H45.701ZM66.8052 93.8641L63.0529 90.9871C62.8681 90.846 62.6942 90.8536 62.4868 90.9871C61.4922 91.6255 60.559 92.3395 59.6669 93.151C59.9516 93.4853 60.3162 93.6331 60.6278 93.849C61.5527 94.4899 62.47 95.1409 63.3982 95.7768C63.6006 95.9154 63.8114 96.201 64.0962 95.9448C64.9085 95.2132 65.8577 94.6554 66.8052 93.8641ZM55.9364 97.5559C55.7407 97.5618 55.6668 97.6576 55.5979 97.7516C55.004 98.5631 54.5336 99.451 54.0481 100.33C53.7491 100.871 54.3119 100.645 57.855 103.044C58.149 103.244 58.3136 103.158 58.4833 102.871C58.9504 102.084 59.4376 101.31 59.9323 100.542C60.0785 100.315 60.0676 100.16 59.8265 100.051C58.2968 99.356 56.9982 98.1935 55.9356 97.5559H55.9364ZM53.6777 101.509C53.324 101.472 53.4366 101.753 52.5227 103.912C52.3597 104.298 52.4933 104.495 52.8209 104.696C53.954 105.392 55.0788 106.1 56.191 106.829C56.8638 107.269 56.7361 106.584 57.6971 104.455C57.8726 104.066 57.7559 103.85 57.4266 103.66C54.1052 101.744 54.0523 101.68 53.6777 101.509ZM67.5184 88.6603C67.5528 88.7536 67.5562 88.8275 67.5948 88.8577C68.728 89.7515 69.8855 90.6142 71.0346 91.4878C71.206 91.618 71.3933 91.7162 71.6083 91.6398C72.66 91.2635 73.7562 91.0333 74.865 90.7477C74.7902 90.62 74.7642 90.5226 74.7004 90.4756C73.6117 89.6675 72.5164 88.8695 71.4269 88.0614C71.2496 87.9295 71.0598 87.8724 70.8473 87.8968C69.7099 88.027 68.5818 88.1983 67.5184 88.6603ZM63.5032 90.4478C64.8883 91.3046 66.071 92.2362 67.237 93.1896C67.3982 93.3215 67.5511 93.4802 67.7872 93.3635C68.6431 92.9384 69.4982 92.5084 70.4206 92.0455C69.1412 91.0753 67.9367 90.1673 66.7397 89.2525C66.544 89.103 66.3684 88.9946 66.0979 89.1156C65.263 89.4886 64.4028 89.8086 63.5032 90.4478ZM52.1422 105.31C51.8918 105.975 51.7994 106.707 51.6508 107.423C51.6104 107.615 51.6986 107.751 51.8666 107.863C53.0443 108.646 54.2136 109.444 55.3921 110.23C56.0339 110.657 55.8491 109.689 56.2825 108.484C56.4547 108.006 56.3556 107.756 55.902 107.497C54.7772 106.856 53.629 106.245 52.5974 105.447C52.484 105.36 52.3597 105.277 52.1422 105.31ZM55.4627 114.032C55.5652 113.156 55.4946 112.414 55.6693 111.694C55.7399 111.402 55.629 111.177 55.3182 111.072C54.8906 110.929 54.553 110.63 54.1867 110.382C53.4526 109.884 52.7243 109.377 51.9826 108.891C51.3542 108.479 51.4601 108.861 51.4248 110.868C51.4214 111.06 51.4996 111.207 51.6566 111.319C52.8797 112.195 54.1086 113.067 55.4627 114.032ZM55.6273 117.75C55.7878 116.969 55.4837 116.284 55.5248 115.584C55.5744 114.752 55.0721 115.189 52.0817 112.722C51.9246 112.593 51.7818 112.428 51.4928 112.459C51.5407 113.308 51.7062 114.133 51.8893 114.959C51.9624 115.289 52.001 115.261 54.2144 116.818C54.6638 117.135 55.0679 117.525 55.6273 117.75V117.75ZM63.9324 66.8533C64.0769 67.4271 64.3692 67.6925 64.9068 67.8C66.7506 68.1705 68.6095 68.2352 70.476 68.1218C70.9531 68.0924 71.4647 68.0629 71.8796 67.7051C70.5877 66.7458 66.6758 66.325 63.9324 66.8533ZM79.175 90.4445C79.0726 90.1757 78.8861 90.0934 78.7214 89.9875C77.952 89.4919 77.1498 89.0408 76.4207 88.489C75.8503 88.0572 75.2287 87.8413 74.5492 87.7909C73.8528 87.7388 73.1472 87.6616 72.3467 87.8052C76.0276 90.6335 75.8671 90.6024 76.2392 90.5831C77.1952 90.5344 78.1536 90.4915 79.175 90.4445ZM69.5453 69.5691C69.5906 68.7174 68.9632 69.1861 67.7376 68.9349C67.4436 68.8745 67.2991 69.0189 67.3025 69.3222C67.31 69.9396 67.3235 70.5595 67.3084 71.1769C67.2983 71.5919 67.4671 71.7791 67.8804 71.7522C68.0266 71.743 68.1744 71.7498 68.3231 71.7464C70.1106 71.7153 69.4226 71.859 69.5461 69.5675L69.5453 69.5691ZM56.3128 120.911C56.1792 119.842 56.044 118.801 54.8923 118.283C54.4992 118.106 54.185 117.755 53.8339 117.484L52.3496 116.342C52.395 116.987 52.5529 117.487 52.8704 117.844C53.8902 118.988 55.0948 119.94 56.3119 120.91L56.3128 120.911ZM72.0602 68.6939C71.8318 68.6115 71.6512 68.672 71.4991 68.7417C71.0917 68.9282 70.5247 68.6955 70.2492 69.0744C69.9653 69.4633 70.1568 69.9933 70.1509 70.4612C70.1341 71.8119 70.1954 71.8329 71.5218 71.4776C71.8628 71.3861 72.0653 71.2416 72.0628 70.8837C72.0569 70.1487 72.0602 69.4121 72.0602 68.6939ZM66.6758 71.633C66.738 71.6129 66.8002 71.5944 66.8623 71.5742C66.8237 71.1685 66.7699 70.7627 66.7523 70.3553C66.6868 68.7778 66.691 68.7711 65.1151 68.6208C65.095 68.6191 65.0714 68.6518 64.9891 68.7106L66.6758 71.633Z" fill="#73757A"/>
<path d="M13.6567 110.101C13.6114 111.174 13.3518 111.373 12.2984 111.434C11.8398 111.46 11.0645 111.249 10.4 111.162C9.40212 111.031 9.37608 111.04 9.30384 110.012C9.11064 107.269 8.90148 98.7294 8.8998 98.6303C8.8788 97.183 8.80992 97.6744 13.0855 98.2355C13.6408 98.3086 13.902 98.5698 14.0011 99.1276C14.4875 101.867 13.6895 109.328 13.6567 110.101Z" fill="#73757A"/>
<path d="M60.8874 36.0252C60.6497 41.8665 54.9242 44.2589 51.413 40.94C48.4084 38.1 48.9166 32.7089 52.369 30.4619C56.2758 27.92 61.0848 31.1767 60.8874 36.0252ZM55.3073 30.3812C51.0812 30.2628 48.7418 35.8286 51.3047 39.5725C53.1409 42.2555 56.8008 42.3529 58.7815 39.7699C61.8744 35.7379 59.0461 30.209 55.3073 30.3812Z" fill="#73757A"/>
<path d="M28.3811 80.0732C29.6587 80.0799 30.7742 81.1972 30.7482 82.4437C30.7213 83.7398 29.6352 84.8417 28.3777 84.8467C27.0858 84.8526 25.9686 83.7029 25.9854 82.3849C26.0022 81.067 27.0379 80.0656 28.3811 80.0732ZM28.3391 84.2159C29.3538 84.2083 30.0964 83.4122 30.0661 82.3631C30.0401 81.4693 29.1959 80.6318 28.3408 80.6561C26.0736 80.7191 26.0644 84.2327 28.3391 84.2159Z" fill="#73757A"/>
<path d="M75.2514 128.68C73.6604 128.725 72.1266 128.437 70.6205 127.961C70.3651 127.88 70.1106 127.798 69.9006 127.626C69.6133 127.393 69.7099 126.834 70.1854 126.908C70.4483 126.949 70.7062 127.02 70.964 127.087C76.1855 128.458 80.9869 127.613 85.1542 124.128C91.3004 118.988 92.8141 110.213 88.2689 103.093C88.1042 102.835 87.7573 102.51 88.1278 102.247C88.5385 101.957 88.7603 102.406 88.9501 102.677C92.1799 107.282 92.9132 113.806 90.032 119.41C87.3978 124.535 83.2222 127.646 77.4648 128.541C76.7248 128.656 75.9914 128.659 75.2514 128.68V128.68Z" fill="#73757A"/>
<path d="M86.1806 97.9793C79.7227 95.7004 73.0346 99.0688 68.9422 104.634C62.2096 113.788 64.0139 124.744 69.4831 129.137C73.3194 132.219 77.6034 132.657 82.1176 130.959C96.5882 125.518 99.0646 102.527 86.1806 97.9793ZM73.4572 106.089C73.5168 106.061 73.584 106.113 73.6495 106.141C73.6949 106.16 73.7125 106.212 73.6932 106.254C73.3967 106.877 72.9254 107.368 72.5474 107.901C72.235 108.34 70.749 110.333 70.5634 110.526C70.2106 110.892 69.8586 110.643 69.8603 110.302C69.8662 109.291 72.4458 106.541 73.4572 106.089ZM69.3412 114.682C71.8805 111.546 72.8977 110.215 78.2309 105.143C78.9667 104.443 79.4825 103.989 80.2939 103.497C80.4569 103.398 80.6602 103.276 80.9374 103.425C81.2708 103.601 78.3233 105.808 71.321 113.702C71.0027 114.06 70.6524 114.4 70.3139 114.727C70.0207 115.011 69.5764 115.415 69.3109 115.099C69.2353 115.009 69.2034 114.852 69.342 114.681L69.3412 114.682ZM79.1876 109.406C79.1423 109.792 78.9449 110.089 78.7542 110.375C77.6404 112.044 76.4467 113.545 75.0002 115.336C74.8062 115.576 74.5298 115.755 74.3165 115.925C74.1266 116.074 73.9166 116.149 73.7268 115.997C73.4572 115.78 73.6126 115.477 73.6873 115.331C73.82 115.071 76.2754 111.556 78.4258 109.691C78.577 109.56 78.7382 109.284 79.1087 109.313C79.1591 109.315 79.1927 109.36 79.1868 109.406H79.1876ZM68.7288 127.282C67.7821 126.166 67.0253 124.932 66.512 123.557C66.4406 123.366 66.3163 123.186 66.4264 122.951C66.7229 122.937 66.8682 123.196 67.0732 123.333C69.7771 125.142 72.7314 125.723 75.8932 125.007C81.2129 123.803 84.7392 120.438 86.9635 115.582C89.586 109.859 88.6654 102.577 83.1508 98.7168C82.9937 98.6068 82.7526 98.5673 82.7047 98.2506C83.1121 98.1868 83.5145 98.2036 83.9076 98.2784C90.6318 99.5552 93.8372 105.902 93.6634 112.195C93.2408 127.49 77.0398 137.075 68.7288 127.283V127.282Z" fill="#73757A"/>
<path d="M58.0423 32.8097C55.902 30.1889 51.6919 31.8278 51.6709 36.41C51.6541 39.9725 55.1771 42.1153 57.6576 39.6844C59.4208 37.9573 59.6005 34.7173 58.0423 32.8097ZM54.5462 36.898C54.3152 37.2256 54.0305 37.5961 53.6878 37.3819C53.4862 37.2559 53.4274 37.056 53.5223 36.8191C53.571 36.6965 53.6214 36.5796 53.7029 36.4847C54.563 35.4792 55.3249 34.6738 56.464 34.0706C56.5841 34.0076 56.747 33.9203 57.0116 34.0555C57.3065 34.2084 55.9936 34.8475 54.5462 36.898ZM57.808 36.043C57.6618 36.7133 56.9915 37.5575 56.7454 37.8254C56.4665 38.1304 56.0314 37.9691 56.0104 37.6457C56.0011 37.4945 56.1061 37.3567 56.2094 37.2433C56.4388 36.9896 57.1376 36.2177 57.6887 35.9497C57.7542 35.9186 57.8222 35.9766 57.808 36.043Z" fill="#73757A"/>
<path d="M70.3088 11.6118C69.951 9.90494 67.9619 9.2741 66.2332 9.0473C62.4792 8.55506 48.5453 8.42654 43.7783 10.4476C42.163 11.1322 42.1613 12.3199 42.1226 13.569C42.068 15.3423 42.6661 17.0105 42.9358 18.73C43.1642 20.1899 44.2243 22.2832 45.7926 22.4184C48.7225 22.6704 57.8483 22.6377 65.2184 21.8884C67.6948 21.6364 68.0518 21.4146 69.515 19.4171C70.6776 17.8303 70.6684 13.3288 70.308 11.611L70.3088 11.6118ZM50.631 18.0462C50.4042 17.7043 50.6932 17.4624 50.8486 17.3322C51.8213 16.5183 52.1909 16.1554 53.2636 15.3809C55.4047 13.8353 57.577 12.2443 59.7744 11.3027C59.9894 11.212 60.2339 11.1087 60.6228 11.2179C60.6539 11.2263 60.6766 11.2523 60.6824 11.2842C60.6967 11.3682 60.8639 11.2137 57.2788 13.8143C52.7285 17.1155 51.256 18.9895 50.631 18.0479V18.0462ZM60.8992 15.6951C60.2272 16.3746 60.2398 16.4973 58.3666 17.8824C58.0096 18.147 57.9482 18.2151 57.2737 18.4461C56.7101 18.6393 56.2657 18.0471 56.6261 17.5565C56.8058 17.3112 56.8243 17.328 57.3434 16.9391C58.4892 16.0806 60.4069 14.6451 61.1772 14.8761C61.21 14.8861 61.2335 14.9147 61.2368 14.9491C61.2688 15.3187 61.0722 15.5195 60.8992 15.6951Z" fill="#0C2D6D"/>
<path d="M91.9195 5.49609C91.4903 6.16473 91.7935 5.72289 80.036 11.7323C79.4077 12.0532 78.1704 12.411 77.9503 11.7491C77.8386 11.4131 77.994 11.177 78.2863 11.0183C81.5304 9.25344 84.6905 7.31217 88.258 6.21849C89.3911 5.87157 90.5554 5.68677 91.9187 5.49693L91.9195 5.49609Z" fill="#0C2D6D"/>
<path d="M83.512 40.1169C80.2259 35.9144 78.0301 32.8282 75.2086 30.6148C74.0645 29.7168 74.7827 28.9676 75.5068 29.0818C75.936 29.149 76.251 29.4346 76.5778 29.6849C78.6761 31.2935 82.7156 36.4788 83.5481 38.9879C83.6581 39.3206 83.7203 39.6566 83.5111 40.1177L83.512 40.1169Z" fill="#0C2D6D"/>
<path d="M92.0472 26.1173C91.901 26.3021 91.7876 26.2324 91.6801 26.2013C87.5969 25.0287 80.8231 23.5822 79.6228 22.9009C78.6954 22.3743 79.2817 21.3217 80.1158 21.5595C82.6342 22.276 90.6814 24.2265 92.0472 26.1173Z" fill="#0C2D6D"/>
</svg>
