<svg width="14" height="14" viewBox="0 0 14 14" fill="none" xmlns="http://www.w3.org/2000/svg">
<path fill-rule="evenodd" clip-rule="evenodd" d="M1.703 5.547C1.703 4.85139 1.84001 4.16259 2.10621 3.51993C2.37241 2.87726 2.76259 2.29333 3.25446 1.80146C3.74633 1.30958 4.33027 0.919409 4.97293 0.65321C5.61559 0.387011 6.30439 0.25 7 0.25C7.69561 0.25 8.38442 0.387011 9.02708 0.65321C9.66974 0.919409 10.2537 1.30958 10.7455 1.80146C11.2374 2.29333 11.6276 2.87726 11.8938 3.51993C12.16 4.16259 12.297 4.85139 12.297 5.547C12.297 7.307 11.497 8.94 10.574 10.245C9.646 11.556 8.559 12.587 7.905 13.154C7.65441 13.3731 7.33286 13.4938 7 13.4938C6.66715 13.4938 6.34559 13.3731 6.095 13.154C5.441 12.587 4.354 11.556 3.426 10.244C2.503 8.94 1.703 7.307 1.703 5.547ZM8.765 5.265C8.765 6.395 8.13 7.031 7 7.031C5.87 7.031 5.235 6.395 5.235 5.265C5.235 4.135 5.87 3.5 7 3.5C8.13 3.5 8.765 4.136 8.765 5.265Z" fill="#73757A"/>
</svg>
