<svg width="196" height="107" viewBox="0 0 196 107" fill="none" xmlns="http://www.w3.org/2000/svg">
<path d="M121.187 106.468C117.58 106.468 115.777 103.278 113.835 99.1157L107.453 85.2429C104.817 79.5551 103.014 75.1158 103.014 72.0638C103.014 68.0407 105.511 66.0985 108.008 66.0985C110.921 66.0985 112.586 68.0407 114.528 70.1216C122.991 79.0002 135.06 91.0695 152.54 91.0695C163.638 91.0695 168.91 86.0753 168.91 79.6938C168.91 70.8153 159.06 68.3182 145.187 64.4338C128.124 59.7171 106.205 51.8096 106.205 30.5843C106.205 13.3821 121.048 1.31276 139.499 1.31276C150.736 1.31276 156.285 4.64222 159.615 4.64222C162.944 4.64222 163.222 0.064209 167.384 0.064209C172.239 0.064209 173.349 3.80985 177.233 10.1913L180.979 16.4341C185.557 24.0641 187.36 28.2259 187.36 31.0005C187.36 33.775 185.141 35.4397 183.198 35.4397C180.424 35.4397 178.898 33.9137 176.262 31.2779C169.603 24.4803 157.95 15.1855 144.632 15.1855C137.141 15.1855 132.979 18.2375 132.979 23.3704C132.979 30.0294 140.054 31.8328 152.956 35.4397C174.32 41.2663 195.684 48.4801 195.684 71.9251C195.684 92.8729 178.62 105.358 154.482 105.358C142.274 105.358 134.089 101.752 130.205 101.752C125.904 101.752 125.21 106.468 121.187 106.468Z" fill="white" fill-opacity="0.8"/>
<path d="M48.7454 106.052C23.2195 106.052 5.04623 96.7573 5.04623 72.3412C5.04623 69.4279 5.32368 65.4048 5.60114 62.0754L8.51441 26.4224C8.65314 24.7577 8.9306 22.2606 8.9306 20.3184C8.9306 15.7404 6.57223 14.3531 4.49132 12.9658C2.54913 11.856 0.884399 10.8849 0.884399 8.11035C0.884399 5.61325 2.68786 3.25488 6.98841 3.25488C10.7341 3.25488 14.2022 3.67107 23.7744 3.67107C33.3466 3.67107 37.6472 3.25488 41.3928 3.25488C45.6934 3.25488 47.4969 5.61325 47.4969 8.11035C47.4969 11.0236 45.8321 12.1334 43.8899 13.2433C41.6703 14.7693 39.0345 16.434 38.6183 21.8444L35.4276 62.6303C35.2888 64.5725 34.8727 69.1505 34.8727 71.5088C34.8727 82.1909 41.3928 89.4047 55.2656 89.4047C66.0864 89.4047 75.936 85.1041 75.936 71.7863C75.936 69.5667 75.6586 67.347 75.5198 65.4048L71.9129 21.8444C71.4967 16.7115 68.306 15.3242 65.254 13.9369C62.6182 12.6884 60.2598 11.7173 60.2598 8.11035C60.2598 5.61325 62.7569 3.25488 67.0574 3.25488C71.358 3.25488 75.3811 3.67107 79.1267 3.67107C82.5949 3.67107 86.4793 3.25488 90.3637 3.25488C94.6642 3.25488 96.4677 5.61325 96.4677 8.11035C96.4677 10.8849 94.6642 11.856 92.7221 12.9658C90.3637 14.3531 87.7279 15.8791 87.7279 20.3184C87.7279 22.2606 88.0053 24.7577 88.144 26.4224L91.196 64.295C91.4735 68.1794 91.751 70.9539 91.751 73.0349C91.751 96.6185 74.5487 106.052 48.7454 106.052Z" fill="white" fill-opacity="0.8"/>
</svg>
