<svg width="377" height="107" viewBox="0 0 377 107" fill="none" xmlns="http://www.w3.org/2000/svg">
<path d="M371.645 67.6245C374.142 67.6245 376.639 69.7054 376.639 73.1736C376.639 76.6418 375.391 79.1389 372.894 84.4106L366.096 99.2544C363.599 104.526 361.379 106.607 357.911 106.607C353.749 106.607 352.917 103 346.119 103H303.668C294.096 103 290.628 103.416 286.882 103.416C282.582 103.416 280.778 101.058 280.778 98.5608C280.778 92.318 288.825 94.8151 288.825 84.8268V21.8444C288.825 11.8561 280.778 14.3531 280.778 8.11041C280.778 5.61332 282.582 3.25494 286.882 3.25494C290.489 3.25494 293.958 3.67113 303.668 3.67113H340.709C347.506 3.67113 348.339 0.064209 352.501 0.064209C355.969 0.064209 358.327 2.14512 360.686 7.41677L366.79 21.2895C369.148 26.5612 370.535 29.0583 370.535 32.5265C370.535 35.9946 368.038 38.0756 365.541 38.0756C363.044 38.0756 361.518 36.5496 359.16 34.0525C349.449 23.7866 343.483 16.7115 331.969 16.7115H325.449C320.316 16.7115 318.512 18.7924 318.512 23.2317V42.2374C318.512 45.0119 319.483 46.1218 322.952 46.1218H326.42C334.327 46.1218 334.743 36.2721 340.709 36.2721C343.9 36.2721 345.842 38.2143 345.842 42.6536C345.842 45.983 345.426 49.3125 345.426 52.642C345.426 55.9714 345.842 59.3009 345.842 62.6303C345.842 67.0696 343.9 69.0118 340.709 69.0118C334.743 69.0118 334.327 59.1622 326.42 59.1622H322.952C319.483 59.1622 318.512 60.272 318.512 63.0465V83.4395C318.512 87.8788 320.316 89.9597 325.449 89.9597H336.131C348.061 89.9597 355.136 83.162 365.264 71.6476C367.483 69.0118 369.148 67.6245 371.645 67.6245Z" fill="white" fill-opacity="0.8"/>
<path d="M253.388 49.4512C266.151 53.613 274.059 62.4916 274.059 74.5609C274.059 93.2891 260.741 103.694 232.024 103.694C221.204 103.694 205.527 103 196.371 103C186.799 103 183.331 103.416 179.585 103.416C175.285 103.416 173.481 101.058 173.481 98.5607C173.481 92.318 181.528 94.8151 181.528 84.8267V21.8444C181.528 11.856 173.481 14.3531 173.481 8.11039C173.481 5.61329 175.285 3.25492 179.585 3.25492C183.331 3.25492 186.799 3.6711 196.371 3.6711C205.944 3.6711 215.516 2.56128 227.308 2.56128C251.169 2.56128 266.845 12.2722 266.845 29.3357C266.845 36.9657 263.238 44.5957 253.388 49.4512ZM211.215 22.2606V40.5726C211.215 43.3472 212.186 44.457 216.348 44.457H220.926C228.279 44.457 235.215 40.7114 235.215 31.1392C235.215 21.8444 228.695 16.0179 220.094 16.0179H219.261C214.961 16.0179 211.215 17.1277 211.215 22.2606ZM224.117 90.5146C234.383 90.5146 241.597 84.1331 241.597 74.6996C241.597 63.1852 233.55 56.9425 220.51 56.9425H215.932C212.464 56.9425 211.215 58.3298 211.215 61.9367V80.8036C211.215 89.5435 213.99 90.5146 222.73 90.5146H224.117Z" fill="white" fill-opacity="0.8"/>
<path d="M124.988 103.416C120.688 103.416 118.884 101.058 118.884 98.5607C118.884 92.318 126.931 94.8151 126.931 84.8267V21.8444C126.931 11.856 118.884 14.3531 118.884 8.11035C118.884 5.61325 121.382 3.25488 125.682 3.25488C129.428 3.25488 132.202 3.67107 141.774 3.67107C151.347 3.67107 154.815 3.25488 158.561 3.25488C162.861 3.25488 164.665 5.61325 164.665 8.11035C164.665 14.3531 156.618 11.856 156.618 21.8444V84.8267C156.618 94.8151 164.665 92.318 164.665 98.5607C164.665 101.058 162.861 103.416 158.561 103.416C154.815 103.416 151.347 103 141.774 103C132.202 103 128.734 103.416 124.988 103.416Z" fill="white" fill-opacity="0.8"/>
<path d="M110.207 3.25488C114.369 3.25488 116.173 5.19707 116.173 7.55544C116.173 14.3531 107.71 11.9947 102.994 24.2027L74.832 96.3411C72.3349 102.584 69.8378 104.665 57.7685 104.665C46.3928 104.665 43.6183 102.723 41.1212 96.3411L12.9595 24.3415C8.5202 13.1045 0.473999 14.3531 0.473999 7.69416C0.473999 5.19707 2.69364 3.25488 5.88437 3.25488C10.8786 3.25488 16.1502 3.67107 25.7224 3.67107C35.7108 3.67107 41.8148 3.25488 46.9477 3.25488C51.387 3.25488 54.1616 5.05834 54.1616 8.11035C54.1616 15.3242 44.4506 13.1045 44.4506 20.3184C44.4506 22.3993 45.6992 25.3126 47.0865 29.0582L65.9534 78.1678L85.6527 26.6998C86.9013 23.5091 87.4562 21.012 87.4562 19.9022C87.4562 12.6884 76.4967 15.1855 76.4967 8.11035C76.4967 5.05834 78.7163 3.25488 83.2943 3.25488C88.2885 3.25488 92.7278 3.67107 96.8896 3.67107C101.19 3.67107 105.491 3.25488 110.207 3.25488Z" fill="white" fill-opacity="0.8"/>
</svg>
