<svg width="442" height="105" viewBox="0 0 442 105" fill="none" xmlns="http://www.w3.org/2000/svg">
<path d="M433.524 84.8267C433.524 94.8151 441.57 92.318 441.57 98.5607C441.57 101.058 439.767 103.416 435.466 103.416C431.72 103.416 428.252 103 418.68 103C409.108 103 405.64 103.416 401.894 103.416C397.594 103.416 395.79 101.058 395.79 98.5607C395.79 92.318 403.836 94.8151 403.836 84.8267V63.0465C403.836 60.2719 402.865 59.1621 399.397 59.1621H374.703C371.235 59.1621 370.264 60.2719 370.264 63.0465V84.8267C370.264 94.8151 378.31 92.318 378.31 98.5607C378.31 101.058 376.507 103.416 372.206 103.416C368.461 103.416 364.993 103 355.42 103C345.848 103 342.38 103.416 338.634 103.416C334.334 103.416 332.53 101.058 332.53 98.5607C332.53 92.318 340.576 94.8151 340.576 84.8267V21.8444C340.576 11.856 332.53 14.3531 332.53 8.11035C332.53 5.61325 335.027 3.25488 339.328 3.25488C343.074 3.25488 345.848 3.67107 355.42 3.67107C364.993 3.67107 368.461 3.25488 372.206 3.25488C376.507 3.25488 378.31 5.61325 378.31 8.11035C378.31 14.3531 370.264 11.856 370.264 21.8444V42.2373C370.264 45.0119 371.235 46.1217 374.703 46.1217H399.397C402.865 46.1217 403.836 45.0119 403.836 42.2373V21.8444C403.836 11.856 395.79 14.3531 395.79 8.11035C395.79 5.61325 397.594 3.25488 401.894 3.25488C405.64 3.25488 409.108 3.67107 418.68 3.67107C428.252 3.67107 431.72 3.25488 435.466 3.25488C439.767 3.25488 441.57 5.61325 441.57 8.11035C441.57 14.3531 433.524 11.856 433.524 21.8444V84.8267Z" fill="white" fill-opacity="0.8"/>
<path d="M253.886 103.416C249.585 103.416 247.782 101.058 247.782 98.5608C247.782 91.4857 258.048 94.8151 258.048 84.8268V23.6479C258.048 18.9312 256.244 16.7115 251.805 16.7115H250.418C243.204 16.7115 237.655 23.5092 228.499 33.775C226.279 36.2721 224.614 37.7981 222.117 37.7981C219.481 37.7981 217.123 35.7172 217.123 31.9715C217.123 28.7808 218.372 26.2837 220.314 21.2895L225.724 7.41677C227.805 2.14512 230.025 0.064209 233.493 0.064209C237.655 0.064209 238.626 3.67113 245.423 3.67113H300.36C307.157 3.67113 308.128 0.064209 312.29 0.064209C315.758 0.064209 317.978 2.14512 320.059 7.41677L325.469 21.2895C327.411 26.2837 328.66 28.7808 328.66 31.9715C328.66 35.7172 326.302 37.7981 323.666 37.7981C321.169 37.7981 319.504 36.2721 317.284 33.775C308.128 23.5092 302.579 16.7115 295.365 16.7115H293.978C289.539 16.7115 287.735 18.9312 287.735 23.6479V84.8268C287.735 94.8151 298.001 91.4857 298.001 98.5608C298.001 101.058 296.198 103.416 291.897 103.416C287.735 103.416 283.435 103 272.892 103C262.487 103 257.909 103.416 253.886 103.416Z" fill="white" fill-opacity="0.8"/>
<path d="M173.624 103.416C169.324 103.416 167.52 101.058 167.52 98.5607C167.52 92.318 175.567 94.8151 175.567 84.8267V21.8444C175.567 11.856 167.52 14.3531 167.52 8.11035C167.52 5.61325 170.017 3.25488 174.318 3.25488C178.064 3.25488 180.838 3.67107 190.41 3.67107C199.983 3.67107 203.451 3.25488 207.196 3.25488C211.497 3.25488 213.3 5.61325 213.3 8.11035C213.3 14.3531 205.254 11.856 205.254 21.8444V84.8267C205.254 94.8151 213.3 92.318 213.3 98.5607C213.3 101.058 211.497 103.416 207.196 103.416C203.451 103.416 199.983 103 190.41 103C180.838 103 177.37 103.416 173.624 103.416Z" fill="white" fill-opacity="0.8"/>
<path d="M159.317 3.39355C163.063 3.39355 165.005 5.19701 165.005 7.55539C165.005 14.353 156.265 12.1334 152.936 21.7056L127.132 97.1734C125.606 101.751 122.97 104.665 112.288 104.665C101.468 104.665 99.5255 101.751 97.8607 97.1734L82.7394 54.3066L67.2019 97.1734C65.5372 101.89 62.6239 104.665 52.0806 104.665C41.6761 104.665 39.5952 101.751 37.9304 97.1734L11.2947 21.7056C8.104 12.5496 0.0578003 14.0756 0.0578003 7.55539C0.0578003 5.19701 2.5549 3.39355 5.6069 3.39355C10.6011 3.39355 15.0404 3.80974 24.89 3.80974C34.601 3.80974 39.5952 3.39355 44.5893 3.39355C48.8899 3.39355 51.2483 5.05829 51.2483 8.1103C51.2483 14.353 43.3408 11.9947 43.3408 19.2085C43.3408 20.7345 43.8957 23.2316 44.7281 25.7287L60.6817 74.5608L75.3869 33.0813L71.3638 21.7056C68.173 12.5496 60.8205 14.0756 60.8205 7.55539C60.8205 5.19701 63.3176 3.39355 66.3696 3.39355C71.225 3.39355 75.1094 3.80974 84.8203 3.80974C94.67 3.80974 99.9416 3.39355 104.936 3.39355C109.236 3.39355 111.456 5.05829 111.456 8.1103C111.456 14.353 102.716 11.9947 102.716 19.2085C102.716 21.1507 103.549 24.064 104.103 25.7287L120.473 74.2833L134.901 27.3934C136.288 22.9541 136.704 20.3183 136.704 19.2085C136.704 11.9947 127.271 14.353 127.271 8.1103C127.271 5.05829 129.352 3.39355 133.791 3.39355C138.647 3.39355 143.086 3.80974 146.97 3.80974C150.993 3.80974 155.155 3.39355 159.317 3.39355Z" fill="white" fill-opacity="0.8"/>
</svg>
