<svg width="14" height="14" viewBox="0 0 14 14" fill="none" xmlns="http://www.w3.org/2000/svg">
<g clip-path="url(#clip0_45_91)">
<path fill-rule="evenodd" clip-rule="evenodd" d="M5.25 2.99194C5.25 2.30194 5.81 1.74194 6.5 1.74194H7.5C8.19 1.74194 8.75 2.30194 8.75 2.99194V3.03294C8.172 3.02094 7.592 3.02094 7.029 3.02094H6.971C6.408 3.02094 5.828 3.02094 5.25 3.03294V2.99194ZM3.75 3.10394V2.99194C3.75 2.2626 4.03973 1.56312 4.55546 1.0474C5.07118 0.531675 5.77065 0.241943 6.5 0.241943H7.5C8.22935 0.241943 8.92882 0.531675 9.44454 1.0474C9.96027 1.56312 10.25 2.2626 10.25 2.99194V3.10394C10.724 3.14194 11.185 3.19694 11.62 3.27594C12.0191 3.34901 12.3878 3.53832 12.6797 3.82012C12.9717 4.10191 13.1739 4.46365 13.261 4.85994C13.5 5.93594 13.5 6.92994 13.5 8.34694V8.42294C13.5 9.83994 13.5 10.8349 13.261 11.9109C13.1738 12.3069 12.9716 12.6683 12.6799 12.9499C12.3882 13.2315 12.0198 13.4208 11.621 13.4939C10.221 13.7499 8.561 13.7499 7.029 13.7499H6.971C5.44 13.7499 3.779 13.7499 2.38 13.4939C1.98101 13.4209 1.61244 13.2318 1.32052 12.9502C1.02859 12.6686 0.826299 12.3071 0.739 11.9109C0.5 10.8349 0.5 9.83994 0.5 8.42294V8.34694C0.5 6.93094 0.5 5.93694 0.739 4.85994C0.826055 4.46379 1.02812 4.10214 1.31987 3.82036C1.61162 3.53858 1.98006 3.34919 2.379 3.27594C2.815 3.19594 3.276 3.14194 3.75 3.10394Z" fill="#73757A"/>
</g>
<defs>
<clipPath id="clip0_45_91">
<rect width="14" height="14" fill="white"/>
</clipPath>
</defs>
</svg>
